<svg width="14" height="24" viewBox="0 0 14 24" fill="none" xmlns="http://www.w3.org/2000/svg">
<path id="Vector" d="M0.5 16H3.1C3.1 17.44 4.881 18.6667 7 18.6667C9.119 18.6667 10.9 17.44 10.9 16C10.9 14.5333 9.548 14 6.688 13.2933C3.932 12.5867 0.5 11.7067 0.5 8C0.5 5.61333 2.411 3.58667 5.05 2.90667V0H8.95V2.90667C11.589 3.58667 13.5 5.61333 13.5 8H10.9C10.9 6.56 9.119 5.33333 7 5.33333C4.881 5.33333 3.1 6.56 3.1 8C3.1 9.46667 4.452 10 7.312 10.7067C10.068 11.4133 13.5 12.2933 13.5 16C13.5 18.3867 11.589 20.4133 8.95 21.0933V24H5.05V21.0933C2.411 20.4133 0.5 18.3867 0.5 16Z" fill="white"/>
</svg>
