<svg width="19" height="18" viewBox="0 0 19 18" fill="none" xmlns="http://www.w3.org/2000/svg">
<g id="pin.svg" clip-path="url(#clip0_532_2622)">
<g id="Group">
<g id="Group_2">
<g id="Group_3">
<path id="Vector" d="M16.0222 4.71672C15.3805 2.64348 13.7136 0.962838 11.6719 0.330553C9.49784 -0.342725 7.23128 0.0227596 5.4535 1.33328C4.60166 1.96121 3.89481 2.78945 3.40941 3.72837C2.90773 4.69879 2.64258 5.7913 2.64258 6.88786C2.64258 8.38369 3.11575 9.8052 4.01096 10.9987L9.49977 18L14.9818 11.0076L14.9886 10.9987C16.3283 9.21246 16.705 6.92274 16.0222 4.71672ZM14.1479 10.3614L9.49977 16.2908L4.85162 10.3614C4.09664 9.35281 3.69755 8.15176 3.69755 6.88786C3.69755 5.041 4.58798 3.28196 6.07949 2.18248C7.58467 1.07291 9.5093 0.76526 11.3599 1.33831C13.0738 1.8691 14.4742 3.28315 15.0145 5.02862C15.5955 6.90604 15.2797 8.84947 14.1479 10.3614Z" fill="#A1ABC9"/>
</g>
</g>
<g id="Group_4">
<g id="Group_5">
<path id="Vector_2" d="M9.49896 3.19554C7.46303 3.19554 5.80664 4.85193 5.80664 6.88786C5.80664 8.9238 7.46303 10.5802 9.49896 10.5802C11.5349 10.5802 13.1913 8.9238 13.1913 6.88786C13.1913 4.85193 11.5349 3.19554 9.49896 3.19554ZM9.49896 9.52525C8.04472 9.52525 6.86157 8.34214 6.86157 6.88786C6.86157 5.43362 8.04469 4.25048 9.49896 4.25048C10.9532 4.25048 12.1363 5.43359 12.1363 6.88786C12.1363 8.3421 10.9532 9.52525 9.49896 9.52525Z" fill="#A1ABC9"/>
</g>
</g>
</g>
</g>
<defs>
<clipPath id="clip0_532_2622">
<rect width="18" height="18" fill="white" transform="translate(0.5)"/>
</clipPath>
</defs>
</svg>
