<svg width="20" height="21" viewBox="0 0 20 21" fill="none" xmlns="http://www.w3.org/2000/svg">
<g clip-path="url(#clip0_173_5193)">
<path fill-rule="evenodd" clip-rule="evenodd" d="M10.5893 13.8891C10.433 14.0453 10.2211 14.1331 10.0001 14.1331C9.77915 14.1331 9.56723 14.0453 9.41096 13.8891L4.69679 9.17493C4.6172 9.09806 4.55371 9.0061 4.51004 8.90443C4.46636 8.80276 4.44338 8.69341 4.44241 8.58276C4.44145 8.47211 4.46254 8.36238 4.50444 8.25997C4.54634 8.15755 4.60822 8.06451 4.68646 7.98627C4.7647 7.90802 4.85775 7.84614 4.96016 7.80424C5.06257 7.76234 5.17231 7.74126 5.28296 7.74222C5.39361 7.74318 5.50296 7.76617 5.60463 7.80984C5.7063 7.85352 5.79825 7.917 5.87512 7.99659L10.0001 12.1216L14.1251 7.99659C14.2823 7.8448 14.4928 7.7608 14.7113 7.7627C14.9298 7.7646 15.1388 7.85224 15.2933 8.00675C15.4478 8.16125 15.5355 8.37026 15.5374 8.58876C15.5393 8.80726 15.4553 9.01776 15.3035 9.17493L10.5893 13.8891Z" fill="black"/>
</g>
<defs>
<clipPath id="clip0_173_5193">
<rect width="20" height="20" fill="white" transform="translate(0 0.799805)"/>
</clipPath>
</defs>
</svg>
