<svg width="25" height="26" viewBox="0 0 25 26" fill="none" xmlns="http://www.w3.org/2000/svg">
<g id="fleat-icon">
<rect y="0.799988" width="25" height="25" rx="12.5" fill="#EDF1F9"/>
<g id="Group">
<path id="Vector" d="M7.35431 11.9458H8.70847C8.62506 11.9458 8.5465 11.9074 8.49506 11.8418C8.4436 11.7763 8.42572 11.6907 8.44578 11.6095L8.61425 10.9362C8.70471 10.5738 9.02915 10.3208 9.40237 10.3208H11.146C11.594 10.3208 11.9585 10.6854 11.9585 11.1333V11.675C11.9585 11.8245 11.8372 11.9458 11.6877 11.9458H13.3127C13.1632 11.9458 13.0418 11.8245 13.0418 11.675V11.1333C13.0418 10.6854 13.4063 10.3208 13.8543 10.3208H15.5979C15.9712 10.3208 16.2956 10.5738 16.3861 10.9362L16.5545 11.6095C16.5751 11.6902 16.5567 11.7763 16.5052 11.8418C16.4538 11.9074 16.3752 11.9458 16.2918 11.9458H17.646C17.7955 11.9458 17.9168 11.8245 17.9168 11.675V10.05C17.9168 9.30358 17.3091 8.69583 16.5627 8.69583H8.43765C7.69125 8.69583 7.0835 9.30358 7.0835 10.05V11.675C7.0835 11.8245 7.20481 11.9458 7.35431 11.9458Z" fill="#A1ABC9"/>
<path id="Vector_2" d="M17.6458 12.4875H7.35416C6.60775 12.4875 6 13.0952 6 13.8416V17.6333C6 17.7828 6.12134 17.9041 6.27084 17.9041C6.42034 17.9041 6.54168 17.7828 6.54168 17.6333V16.8208H18.4583V17.6333C18.4583 17.7828 18.5797 17.9041 18.7292 17.9041C18.8787 17.9041 19 17.7828 19 17.6333V13.8416C19 13.0952 18.3923 12.4875 17.6458 12.4875ZM18.4583 16.2791H6.54166V15.7375H18.4583V16.2791H18.4583Z" fill="#A1ABC9"/>
</g>
</g>
</svg>
