<svg width="94" height="94" viewBox="0 0 94 94" fill="none" xmlns="http://www.w3.org/2000/svg">
<circle cx="47" cy="47" r="35" fill="#FBFBFB"/>
<circle cx="47" cy="47" r="41" stroke="white" stroke-opacity="0.34" stroke-width="12"/>
<path d="M61.444 44.3699C61.9144 44.6289 62.3066 45.0093 62.5798 45.4716C62.853 45.9338 62.9971 46.4609 62.9971 46.9979C62.9971 47.5348 62.853 48.0619 62.5798 48.5242C62.3066 48.9864 61.9144 49.3669 61.444 49.6259L41.444 60.6219C40.9872 60.8728 40.4728 61.0003 39.9517 60.9919C39.4306 60.9835 38.9206 60.8395 38.4721 60.574C38.0236 60.3086 37.6519 59.9309 37.3938 59.4781C37.1357 59.0253 36.9999 58.5131 37 57.9919V36.0039C37.0001 35.4826 37.136 34.9703 37.3944 34.5175C37.6528 34.0647 38.0247 33.6871 38.4735 33.4218C38.9222 33.1566 39.4324 33.0128 39.9536 33.0048C40.4749 32.9967 40.9892 33.1246 41.446 33.3759L61.444 44.3699Z" fill="#FF385C"/>
</svg>
