<svg width="16" height="14" viewBox="0 0 16 14" fill="none" xmlns="http://www.w3.org/2000/svg">
<path d="M13.7047 2.02734C15.7555 3.75 15.4547 6.56641 14.0055 8.07031L9.19297 12.9648C8.91953 13.2383 8.56406 13.4023 8.18125 13.4023C7.77109 13.4023 7.41563 13.2383 7.14219 12.9648L2.35703 8.07031C0.880469 6.56641 0.579688 3.75 2.63047 2.02734C4.21641 0.6875 6.65 0.878906 8.18125 2.4375C9.68516 0.878906 12.1188 0.6875 13.7047 2.02734ZM13.0484 7.14062C14.0602 6.12891 14.2516 4.21484 12.857 3.01172C11.7906 2.13672 10.15 2.27344 9.13828 3.3125L8.18125 4.29688L7.22422 3.3125C6.18516 2.27344 4.54453 2.13672 3.47813 3.03906C2.08359 4.21484 2.275 6.12891 3.28672 7.14062L8.07188 12.0352C8.15391 12.0898 8.20859 12.0898 8.26328 12.0352L13.0484 7.14062Z" fill="#F95D02"/>
</svg>
