<svg width="20" height="20" viewBox="0 0 20 20" fill="none" xmlns="http://www.w3.org/2000/svg">
<path d="M4.1665 5.41667C4.85686 5.41667 5.4165 4.85703 5.4165 4.16667C5.4165 3.47632 4.85686 2.91667 4.1665 2.91667C3.47615 2.91667 2.9165 3.47632 2.9165 4.16667C2.9165 4.85703 3.47615 5.41667 4.1665 5.41667Z" stroke="#00C5B4" stroke-width="0.833333" stroke-linecap="round"/>
<path d="M4.1665 11.25C4.85686 11.25 5.4165 10.6904 5.4165 10C5.4165 9.30964 4.85686 8.75 4.1665 8.75C3.47615 8.75 2.9165 9.30964 2.9165 10C2.9165 10.6904 3.47615 11.25 4.1665 11.25Z" stroke="#00C5B4" stroke-width="0.833333" stroke-linecap="round"/>
<path d="M4.1665 17.0833C4.85686 17.0833 5.4165 16.5237 5.4165 15.8333C5.4165 15.143 4.85686 14.5833 4.1665 14.5833C3.47615 14.5833 2.9165 15.143 2.9165 15.8333C2.9165 16.5237 3.47615 17.0833 4.1665 17.0833Z" stroke="#00C5B4" stroke-width="0.833333" stroke-linecap="round"/>
<path d="M15.8332 2.91667H9.1665C8.47615 2.91667 7.9165 3.47632 7.9165 4.16667C7.9165 4.85703 8.47615 5.41667 9.1665 5.41667H15.8332C16.5235 5.41667 17.0832 4.85703 17.0832 4.16667C17.0832 3.47632 16.5235 2.91667 15.8332 2.91667Z" stroke="#00C5B4" stroke-width="0.833333" stroke-linecap="round"/>
<path d="M15.8332 8.75H9.1665C8.47615 8.75 7.9165 9.30964 7.9165 10C7.9165 10.6904 8.47615 11.25 9.1665 11.25H15.8332C16.5235 11.25 17.0832 10.6904 17.0832 10C17.0832 9.30964 16.5235 8.75 15.8332 8.75Z" stroke="#00C5B4" stroke-width="0.833333" stroke-linecap="round"/>
<path d="M15.8332 14.5833H9.1665C8.47615 14.5833 7.9165 15.143 7.9165 15.8333C7.9165 16.5237 8.47615 17.0833 9.1665 17.0833H15.8332C16.5235 17.0833 17.0832 16.5237 17.0832 15.8333C17.0832 15.143 16.5235 14.5833 15.8332 14.5833Z" stroke="#00C5B4" stroke-width="0.833333" stroke-linecap="round"/>
</svg>
