<svg width="13" height="13" viewBox="0 0 13 13" fill="none" xmlns="http://www.w3.org/2000/svg">
<g id="bi:star-half" clip-path="url(#clip0_293_7231)">
<path id="Vector" d="M4.20861 4.6393L5.84661 1.39405C5.87834 1.32898 5.92757 1.27403 5.98876 1.23536C6.04996 1.19668 6.12071 1.1758 6.19311 1.17505C6.33036 1.17505 6.46761 1.2478 6.54186 1.39405L8.17986 4.6393L11.8534 5.1613C11.9447 5.17609 12.0283 5.22175 12.0901 5.29066C12.152 5.35958 12.1883 5.44759 12.1931 5.54005C12.1982 5.60168 12.1894 5.66367 12.1674 5.72144C12.1453 5.77921 12.1105 5.83128 12.0656 5.8738L9.42336 8.3908L10.0459 11.9383C10.1044 12.2705 9.77586 12.5308 9.48636 12.3823L6.19311 10.6903L2.90136 12.3823C2.86702 12.4004 2.83008 12.413 2.79186 12.4198C2.53536 12.4648 2.29086 12.2293 2.34186 11.9383L2.96436 8.3908L0.322856 5.8738C0.28179 5.83495 0.249148 5.78807 0.226957 5.73607C0.204766 5.68408 0.193499 5.62808 0.193856 5.57155C0.194641 5.49173 0.216644 5.41356 0.257606 5.34505C0.287029 5.29549 0.32727 5.25323 0.375323 5.22141C0.423375 5.18959 0.477996 5.16904 0.535106 5.1613L4.20861 4.6393ZM6.19311 9.8203C6.25365 9.82005 6.31335 9.83446 6.36711 9.8623L9.13161 11.2828L8.61111 8.31505C8.59848 8.24679 8.60297 8.17647 8.62418 8.11038C8.64538 8.04428 8.68263 7.98447 8.73261 7.9363L10.9129 5.8588L7.87386 5.4268C7.81103 5.41699 7.75148 5.39226 7.70019 5.35468C7.6489 5.31709 7.60738 5.26775 7.57911 5.2108L6.19386 2.4673L6.19311 2.46955V9.8203Z" fill="#FFC107"/>
</g>
<defs>
<clipPath id="clip0_293_7231">
<rect width="12" height="12" fill="white" transform="translate(0.192871 0.800049)"/>
</clipPath>
</defs>
</svg>
