<svg width="17" height="16" viewBox="0 0 17 16" fill="none" xmlns="http://www.w3.org/2000/svg">
<g clip-path="url(#clip0_523_1143)">
<path fill-rule="evenodd" clip-rule="evenodd" d="M7.49992 1.33334C6.59632 1.33341 5.70583 1.54958 4.90276 1.9638C4.09969 2.37802 3.40732 2.97828 2.88342 3.7145C2.35951 4.45073 2.01926 5.30157 1.89106 6.19603C1.76286 7.0905 1.85042 8.00265 2.14644 8.85639C2.44246 9.71013 2.93836 10.4807 3.59275 11.1038C4.24714 11.7269 5.04106 12.1845 5.90827 12.4384C6.77547 12.6923 7.69082 12.7351 8.57794 12.5633C9.46506 12.3915 10.2982 12.01 11.0079 11.4507L13.4426 13.8853C13.5683 14.0068 13.7367 14.074 13.9115 14.0725C14.0863 14.0709 14.2535 14.0008 14.3771 13.8772C14.5007 13.7536 14.5709 13.5864 14.5724 13.4116C14.5739 13.2368 14.5067 13.0684 14.3853 12.9427L11.9506 10.508C12.6093 9.67241 13.0194 8.66827 13.134 7.61049C13.2486 6.5527 13.0631 5.48402 12.5987 4.52673C12.1344 3.56945 11.4098 2.76224 10.5081 2.19749C9.6064 1.63274 8.5639 1.33326 7.49992 1.33334ZM3.16659 7C3.16659 5.85073 3.62314 4.74853 4.4358 3.93587C5.24845 3.12322 6.35065 2.66667 7.49992 2.66667C8.6492 2.66667 9.7514 3.12322 10.5641 3.93587C11.3767 4.74853 11.8333 5.85073 11.8333 7C11.8333 8.14927 11.3767 9.25147 10.5641 10.0641C9.7514 10.8768 8.6492 11.3333 7.49992 11.3333C6.35065 11.3333 5.24845 10.8768 4.4358 10.0641C3.62314 9.25147 3.16659 8.14927 3.16659 7Z" fill="#616E96"/>
</g>
<defs>
<clipPath id="clip0_523_1143">
<rect width="16" height="16" fill="white" transform="translate(0.5)"/>
</clipPath>
</defs>
</svg>
