<svg width="21" height="21" viewBox="0 0 21 21" fill="none" xmlns="http://www.w3.org/2000/svg">
<g clip-path="url(#clip0_81_4410)">
<path fill-rule="evenodd" clip-rule="evenodd" d="M13.9741 10.3159C14.1303 10.4722 14.218 10.6841 14.218 10.9051C14.218 11.126 14.1303 11.338 13.9741 11.4942L9.25989 16.2084C9.18302 16.288 9.09106 16.3515 8.98939 16.3951C8.88772 16.4388 8.77837 16.4618 8.66772 16.4628C8.55707 16.4637 8.44734 16.4426 8.34493 16.4007C8.24251 16.3588 8.14947 16.297 8.07123 16.2187C7.99298 16.1405 7.9311 16.0474 7.8892 15.945C7.8473 15.8426 7.82622 15.7329 7.82718 15.6222C7.82814 15.5116 7.85113 15.4022 7.8948 15.3006C7.93848 15.1989 8.00196 15.1069 8.08156 15.0301L12.2066 10.9051L8.08156 6.78006C7.92976 6.62289 7.84576 6.41239 7.84766 6.19389C7.84956 5.97539 7.9372 5.76638 8.09171 5.61188C8.24621 5.45737 8.45522 5.36973 8.67372 5.36783C8.89222 5.36593 9.10272 5.44993 9.25989 5.60172L13.9741 10.3159Z" fill="white"/>
</g>
<defs>
<clipPath id="clip0_81_4410">
<rect width="20" height="20" fill="white" transform="translate(0.884766 0.90506)"/>
</clipPath>
</defs>
</svg>
