<svg width="26" height="28" viewBox="0 0 26 28" fill="none" xmlns="http://www.w3.org/2000/svg">
<path d="M24.444 11.3699C24.9144 11.6289 25.3066 12.0093 25.5798 12.4716C25.853 12.9338 25.9971 13.4609 25.9971 13.9979C25.9971 14.5348 25.853 15.0619 25.5798 15.5242C25.3066 15.9864 24.9144 16.3669 24.444 16.6259L4.444 27.6219C3.98715 27.8728 3.47283 28.0003 2.9517 27.9919C2.43057 27.9835 1.92062 27.8395 1.47209 27.574C1.02356 27.3086 0.651916 26.9309 0.393784 26.4781C0.135651 26.0253 -6.72291e-05 25.5131 2.49832e-08 24.9919V3.00388C8.92778e-05 2.48257 0.136022 1.97028 0.394401 1.5175C0.652779 1.06472 1.02468 0.687091 1.47346 0.421823C1.92224 0.156555 2.43239 0.0128091 2.95364 0.00475286C3.47489 -0.00330334 3.98924 0.124609 4.446 0.375881L24.444 11.3699Z" fill="#FF385C"/>
</svg>
