<svg width="18" height="11" viewBox="0 0 18 11" fill="none" xmlns="http://www.w3.org/2000/svg">
<path d="M17.0359 3.22036C17.6289 3.40083 17.6289 4.20005 17.0359 4.38052L9.84297 6.59771C9.32734 6.75239 8.86328 6.67505 8.63125 6.59771L3.60391 5.05083C3.26875 5.25708 3.08828 5.61802 3.0625 6.00474C3.29453 6.13364 3.475 6.39146 3.475 6.67505C3.475 6.95864 3.32031 7.19067 3.11406 7.34536L3.75859 10.3102C3.81016 10.568 3.62969 10.8 3.37187 10.8H1.90234C1.64453 10.8 1.46406 10.568 1.51562 10.3102L2.16016 7.34536C1.95391 7.19067 1.825 6.95864 1.825 6.67505C1.825 6.39146 1.97969 6.13364 2.2375 5.97896C2.26328 5.54067 2.41797 5.10239 2.70156 4.76724L1.43828 4.38052C0.845313 4.20005 0.845313 3.40083 1.43828 3.22036L8.63125 1.00317C9.01797 0.874268 9.45625 0.874268 9.84297 1.00317L17.0359 3.22036ZM10.075 7.39692L13.8133 6.23677L14.2 9.15005C14.2 10.0782 11.9828 10.8 9.25 10.8C6.49141 10.8 4.3 10.0782 4.3 9.15005L4.66094 6.23677L8.39922 7.39692C8.70859 7.50005 9.35312 7.60317 10.075 7.39692Z" fill="#17A2B8"/>
</svg>
