<svg width="16" height="17" viewBox="0 0 16 17" fill="none" xmlns="http://www.w3.org/2000/svg">
<rect width="16" height="17" fill="#F5F5F5"/>
<g id="Detail " clip-path="url(#clip0_0_1)">
<rect width="1440" height="7913" transform="translate(-778 -7234)" fill="#F5F7FB"/>
<g id="Frame 7126">
<g id="Frame 7116">
<g id="frame" filter="url(#filter0_d_0_1)">
<rect x="-237" y="-448" width="360" height="493" rx="8" fill="white"/>
<g id="Frame 7116_2">
<rect width="360" height="212" transform="translate(-237 -209)" fill="white"/>
<g id="Frame 7116_3">
<g id="Frame 7117">
<path d="M-213 -23.2002H99V-25.2002H-213V-23.2002Z" fill="black" fill-opacity="0.1" mask="url(#path-2-inside-1_0_1)"/>
<g id="Frame 7114">
<g id="ep:calendar">
<path id="Vector" d="M2 6.2998V14.2998H14V3.2998H12V3.7998C12 3.93241 11.9473 4.05959 11.8536 4.15336C11.7598 4.24713 11.6326 4.2998 11.5 4.2998C11.3674 4.2998 11.2402 4.24713 11.1464 4.15336C11.0527 4.05959 11 3.93241 11 3.7998V3.2998H5V3.7998C5 3.93241 4.94732 4.05959 4.85355 4.15336C4.75979 4.24713 4.63261 4.2998 4.5 4.2998C4.36739 4.2998 4.24021 4.24713 4.14645 4.15336C4.05268 4.05959 4 3.93241 4 3.7998V3.2998H2V5.2998H14V6.2998H2ZM5 2.2998H11V1.7998C11 1.6672 11.0527 1.54002 11.1464 1.44625C11.2402 1.35248 11.3674 1.2998 11.5 1.2998C11.6326 1.2998 11.7598 1.35248 11.8536 1.44625C11.9473 1.54002 12 1.6672 12 1.7998V2.2998H14.5C14.6326 2.2998 14.7598 2.35248 14.8536 2.44625C14.9473 2.54002 15 2.6672 15 2.7998V14.7998C15 14.9324 14.9473 15.0596 14.8536 15.1534C14.7598 15.2471 14.6326 15.2998 14.5 15.2998H1.5C1.36739 15.2998 1.24021 15.2471 1.14645 15.1534C1.05268 15.0596 1 14.9324 1 14.7998V2.7998C1 2.6672 1.05268 2.54002 1.14645 2.44625C1.24021 2.35248 1.36739 2.2998 1.5 2.2998H4V1.7998C4 1.6672 4.05268 1.54002 4.14645 1.44625C4.24021 1.35248 4.36739 1.2998 4.5 1.2998C4.63261 1.2998 4.75979 1.35248 4.85355 1.44625C4.94732 1.54002 5 1.6672 5 1.7998V2.2998ZM4.5 8.2998H5.5C5.63261 8.2998 5.75979 8.35248 5.85355 8.44625C5.94732 8.54002 6 8.6672 6 8.7998C6 8.93241 5.94732 9.05959 5.85355 9.15336C5.75979 9.24713 5.63261 9.2998 5.5 9.2998H4.5C4.36739 9.2998 4.24021 9.24713 4.14645 9.15336C4.05268 9.05959 4 8.93241 4 8.7998C4 8.6672 4.05268 8.54002 4.14645 8.44625C4.24021 8.35248 4.36739 8.2998 4.5 8.2998ZM4.5 11.2998H5.5C5.63261 11.2998 5.75979 11.3525 5.85355 11.4463C5.94732 11.54 6 11.6672 6 11.7998C6 11.9324 5.94732 12.0596 5.85355 12.1534C5.75979 12.2471 5.63261 12.2998 5.5 12.2998H4.5C4.36739 12.2998 4.24021 12.2471 4.14645 12.1534C4.05268 12.0596 4 11.9324 4 11.7998C4 11.6672 4.05268 11.54 4.14645 11.4463C4.24021 11.3525 4.36739 11.2998 4.5 11.2998ZM7.5 8.2998H8.5C8.63261 8.2998 8.75979 8.35248 8.85355 8.44625C8.94732 8.54002 9 8.6672 9 8.7998C9 8.93241 8.94732 9.05959 8.85355 9.15336C8.75979 9.24713 8.63261 9.2998 8.5 9.2998H7.5C7.36739 9.2998 7.24021 9.24713 7.14645 9.15336C7.05268 9.05959 7 8.93241 7 8.7998C7 8.6672 7.05268 8.54002 7.14645 8.44625C7.24021 8.35248 7.36739 8.2998 7.5 8.2998ZM7.5 11.2998H8.5C8.63261 11.2998 8.75979 11.3525 8.85355 11.4463C8.94732 11.54 9 11.6672 9 11.7998C9 11.9324 8.94732 12.0596 8.85355 12.1534C8.75979 12.2471 8.63261 12.2998 8.5 12.2998H7.5C7.36739 12.2998 7.24021 12.2471 7.14645 12.1534C7.05268 12.0596 7 11.9324 7 11.7998C7 11.6672 7.05268 11.54 7.14645 11.4463C7.24021 11.3525 7.36739 11.2998 7.5 11.2998ZM10.5 8.2998H11.5C11.6326 8.2998 11.7598 8.35248 11.8536 8.44625C11.9473 8.54002 12 8.6672 12 8.7998C12 8.93241 11.9473 9.05959 11.8536 9.15336C11.7598 9.24713 11.6326 9.2998 11.5 9.2998H10.5C10.3674 9.2998 10.2402 9.24713 10.1464 9.15336C10.0527 9.05959 10 8.93241 10 8.7998C10 8.6672 10.0527 8.54002 10.1464 8.44625C10.2402 8.35248 10.3674 8.2998 10.5 8.2998ZM10.5 11.2998H11.5C11.6326 11.2998 11.7598 11.3525 11.8536 11.4463C11.9473 11.54 12 11.6672 12 11.7998C12 11.9324 11.9473 12.0596 11.8536 12.1534C11.7598 12.2471 11.6326 12.2998 11.5 12.2998H10.5C10.3674 12.2998 10.2402 12.2471 10.1464 12.1534C10.0527 12.0596 10 11.9324 10 11.7998C10 11.6672 10.0527 11.54 10.1464 11.4463C10.2402 11.3525 10.3674 11.2998 10.5 11.2998Z" fill="#616E96"/>
</g>
</g>
</g>
</g>
</g>
</g>
</g>
</g>
</g>
<defs>
<filter id="filter0_d_0_1" x="-257" y="-468" width="400" height="533" filterUnits="userSpaceOnUse" color-interpolation-filters="sRGB">
<feFlood flood-opacity="0" result="BackgroundImageFix"/>
<feColorMatrix in="SourceAlpha" type="matrix" values="0 0 0 0 0 0 0 0 0 0 0 0 0 0 0 0 0 0 127 0" result="hardAlpha"/>
<feOffset/>
<feGaussianBlur stdDeviation="10"/>
<feComposite in2="hardAlpha" operator="out"/>
<feColorMatrix type="matrix" values="0 0 0 0 0.243137 0 0 0 0 0.109804 0 0 0 0 0.513726 0 0 0 0.1 0"/>
<feBlend mode="normal" in2="BackgroundImageFix" result="effect1_dropShadow_0_1"/>
<feBlend mode="normal" in="SourceGraphic" in2="effect1_dropShadow_0_1" result="shape"/>
</filter>
<clipPath id="clip0_0_1">
<rect width="1440" height="7913" fill="white" transform="translate(-778 -7234)"/>
</clipPath>
</defs>
</svg>
