<svg width="95" height="34" viewBox="0 0 95 34" fill="none" xmlns="http://www.w3.org/2000/svg">
<path d="M5.07373 0.46769C4.93529 0.524666 4.34375 1.02606 3.75221 1.57304C2.63207 2.6328 1.44899 4.21676 1.04624 5.20815C0.920385 5.51583 0.78194 5.8235 0.731597 5.89187C0.643495 6.01722 0.35402 6.97443 0.102302 8.00001C-0.0739007 8.71792 -0.0109712 11.6921 0.202989 12.6493C0.643495 14.6321 1.72588 16.5921 3.33688 18.3356C3.63894 18.6547 3.87807 18.9509 3.87807 18.9965C3.87807 19.0421 4.29341 19.4751 4.80943 19.9537C6.11836 21.1844 7.22592 22.3581 8.25796 23.6344C8.7614 24.2498 9.16415 24.7626 9.16415 24.7968C9.16415 24.8195 9.44104 25.207 9.76827 25.6742C10.6745 26.9277 11.8701 28.9105 12.298 29.8905C12.3861 30.107 12.5372 30.4374 12.6379 30.6426C12.7385 30.8363 12.8141 31.0756 12.8141 31.1781C12.8141 31.2807 12.877 31.3605 12.9399 31.3605C13.0154 31.3605 13.0658 31.463 13.0658 31.5884C13.0658 31.7137 13.1413 32.01 13.242 32.2379C13.3301 32.4772 13.4811 32.8874 13.5692 33.1495C13.7832 33.7763 13.9845 33.7763 14.1985 33.1495C14.8907 31.087 15.369 29.993 16.4262 28.1128C17.9491 25.4121 20.6928 21.9821 23.2729 19.5663C24.1288 18.7572 25.0098 17.7544 25.6265 16.8656C25.916 16.444 26.1551 16.0679 26.1551 16.0451C26.1551 16.0109 26.3565 15.5893 26.6082 15.1107C26.8599 14.6207 27.0865 14.0395 27.1242 13.8116C27.162 13.5951 27.2375 13.3558 27.2878 13.2988C27.3382 13.2305 27.4137 12.957 27.464 12.6721C27.5018 12.3872 27.5773 11.8972 27.6277 11.5895C27.829 10.45 27.6277 7.47583 27.3004 6.8035C27.2501 6.67815 27.0865 6.26792 26.9606 5.89187C26.7466 5.27653 26.1929 4.15978 26.0292 4.01164C25.9915 3.97746 25.8279 3.71536 25.6517 3.41908C25.3119 2.82653 24.8839 2.32513 23.9652 1.4249C23.3736 0.843735 23.3233 0.820946 22.7066 0.820946C22.1402 0.820946 21.9766 0.889317 21.3221 1.32234C20.9194 1.60722 20.1516 2.25676 19.6356 2.78094C16.8415 5.53862 15.5326 6.5528 14.2488 6.89466C13.6951 7.0428 13.5566 7.0428 13.0658 6.89466C11.8575 6.51862 10.9891 5.80071 9.32776 3.76094C7.88039 1.98327 7.79228 1.88071 7.1504 1.24257C6.38266 0.479084 5.7282 0.228386 5.07373 0.46769ZM7.37695 2.02885C7.88039 2.30234 8.64813 3.21397 9.66758 4.75234C10.7751 6.40466 11.7443 7.73792 12.1092 8.10257C12.5749 8.56978 13.4056 9.02559 13.8083 9.02559C14.8781 9.02559 16.2248 7.7949 17.9743 5.26513C18.9056 3.90908 19.8873 2.74676 20.3908 2.41629C20.6425 2.24536 20.9697 2.14281 21.2592 2.14281C21.6368 2.13141 21.813 2.23397 22.4297 2.81513C23.1471 3.49885 24.2798 4.96885 24.6574 5.72094C25.1356 6.65536 25.2741 6.99722 25.2741 7.17955C25.2741 7.2935 25.3244 7.43025 25.3874 7.49862C25.4503 7.5556 25.5762 8.22792 25.6643 8.99141C25.9789 11.7947 25.4251 13.9826 23.8015 16.3186C23.1722 17.2188 21.083 19.0193 20.0509 19.5663C17.7603 20.7742 16.5772 21.0477 13.6951 21.0477C11.6184 21.0477 11.4422 21.0249 10.4857 20.7286C8.24538 20.0221 6.89869 19.2928 5.51424 18.0279C3.6767 16.3642 2.56914 14.5295 2.07829 12.3644C1.8895 11.5098 1.8895 9.16234 2.07829 8.30769C2.55655 6.16536 3.80256 4.09141 5.48907 2.61001C6.44559 1.78955 6.76024 1.68699 7.37695 2.02885Z" fill="#00C5B4"/>
<path d="M33.8074 7.32759C33.6815 7.38457 33.5808 7.5555 33.5808 7.70363C33.5808 7.85177 34.5751 9.31038 35.9092 11.1108L38.2376 14.256V17.4922C38.2376 20.4778 38.2502 20.7399 38.4641 20.9108C38.7662 21.1615 38.9046 21.1501 39.1564 20.8994C39.3452 20.7171 39.3703 20.3069 39.3703 17.5036V14.3243L41.7491 11.0994C43.3601 8.90015 44.1026 7.7948 44.0649 7.65805C43.9768 7.33898 43.6999 7.16805 43.4104 7.25922C43.272 7.2934 42.2651 8.55829 41.0442 10.222C39.8863 11.8174 38.8795 13.105 38.8165 13.0822C38.741 13.0708 37.7216 11.749 36.5511 10.1536C35.368 8.55829 34.3108 7.24782 34.2101 7.23643C34.1094 7.21363 33.9206 7.25922 33.8074 7.32759Z" fill="#0B2C3D"/>
<path d="M57.2044 7.40735C57.0282 7.58968 56.9905 7.90875 56.9905 9.45852V11.3046H56.3864C55.606 11.3046 55.2285 11.6008 55.455 12.0453C55.5934 12.3074 55.7948 12.3871 56.2227 12.3301C56.3108 12.3187 56.5248 12.3415 56.6884 12.3757L56.9905 12.4441V15.4411C56.9905 18.7913 57.0786 19.3155 57.7708 20.0334C58.2617 20.5348 58.8658 20.8197 59.8601 21.002C60.5019 21.1274 60.6781 21.1274 60.955 20.9906C61.2193 20.8653 61.2697 20.7627 61.2445 20.4892C61.2068 20.1018 61.0306 20.022 59.9482 19.8967C59.4573 19.8397 59.2308 19.7485 58.8658 19.4067C58.1736 18.7799 58.1106 18.4267 58.1484 15.2132L58.1861 12.3871L59.1804 12.3757C60.3509 12.3529 60.6404 12.1934 60.439 11.6806C60.3257 11.3729 60.288 11.3615 59.2559 11.3046L58.1861 11.2476L58.1484 9.42433C58.1232 7.94294 58.0855 7.57829 57.9093 7.40735C57.6575 7.14526 57.4562 7.14526 57.2044 7.40735Z" fill="#0B2C3D"/>
<path d="M73.0503 7.45317C72.874 7.68108 72.8489 8.51294 72.8489 14.1764C72.8489 20.5008 72.8489 20.649 73.1006 20.8769C73.3901 21.139 73.4782 21.1504 73.7676 20.9567C73.9439 20.8427 73.969 20.4439 74.0194 17.9711C74.0697 14.6436 74.1452 14.336 75.1395 13.4357C75.9576 12.695 76.7002 12.3987 77.8203 12.3987C78.9153 12.3874 79.9096 12.7862 80.6018 13.5041C81.5583 14.4955 81.5961 14.655 81.6338 17.9483L81.6842 20.8883L81.9862 21.0136C82.2254 21.1162 82.3386 21.1048 82.54 20.9339C82.7792 20.7401 82.7917 20.5806 82.7917 18.0394C82.7917 15.0311 82.6785 14.3815 82.0114 13.4471C81.4702 12.6722 80.5137 11.9315 79.6704 11.6239C78.588 11.2364 76.9393 11.2592 75.9954 11.6808C75.6052 11.8404 75.064 12.1594 74.7745 12.3874C74.485 12.6039 74.1956 12.7862 74.1201 12.7862C74.0194 12.7862 73.9816 11.9657 73.9816 10.1083C73.9816 7.58991 73.969 7.43038 73.7425 7.31643C73.3901 7.1455 73.2642 7.16829 73.0503 7.45317Z" fill="#0B2C3D"/>
<path d="M47.7776 11.5211C46.7455 11.8288 46.0281 12.239 45.3485 12.9227C44.5682 13.709 44.1906 14.4155 44.0144 15.3955C43.5865 17.9025 45.2352 20.2271 47.8908 20.8881C48.9606 21.1616 49.5396 21.1616 50.5842 20.8995C51.6666 20.626 52.3966 20.2385 53.114 19.532C54.1838 18.495 54.6746 17.2416 54.5739 15.8171C54.4607 14.3699 53.7181 13.1734 52.3714 12.2276C51.1883 11.3957 49.1998 11.0881 47.7776 11.5211ZM51.0247 12.729C51.805 13.0709 52.7616 13.9711 53.1266 14.7004C53.5041 15.4411 53.4916 16.9339 53.114 17.7202C52.7112 18.5292 51.6666 19.4181 50.7604 19.7257C49.7535 20.0676 48.3943 20.0334 47.4881 19.6232C45.1219 18.5748 44.3542 15.8285 45.9023 13.9711C46.4309 13.3216 47.3371 12.7404 48.1677 12.5011C48.9732 12.2732 50.2066 12.3757 51.0247 12.729Z" fill="#0B2C3D"/>
<path d="M66.304 11.3845C65.5111 11.5213 64.177 12.2278 63.5854 12.8203C62.4275 13.9599 61.9996 15.1792 62.1632 16.8315C62.4401 19.555 65.6495 21.6403 68.5065 20.9452C69.4505 20.7173 70.2182 20.3869 70.6839 19.9994C71.1621 19.5778 71.1873 19.3499 70.772 19.0992C70.4825 18.9282 70.4322 18.9396 69.7399 19.3157C68.7079 19.8741 68.1793 19.9994 67.1347 19.9424C66.0397 19.8741 65.209 19.5436 64.479 18.8599C63.5728 18.0394 63.3463 17.481 63.3463 16.1478C63.3463 15.202 63.3966 14.9285 63.6232 14.5524C64.1015 13.7434 64.7685 13.1508 65.6243 12.7748C66.3417 12.4443 66.5809 12.3987 67.4241 12.4101C68.4562 12.4101 69.4756 12.7178 69.9035 13.1394C70.3189 13.5496 71.1747 13.3217 71.0615 12.8203C71.0111 12.5469 69.891 11.8062 69.1987 11.5783C68.6198 11.3959 66.8703 11.2706 66.304 11.3845Z" fill="#0B2C3D"/>
<path d="M88.2288 11.4756C87.31 11.7149 86.8821 11.9314 86.1521 12.5468C84.9313 13.561 84.302 14.803 84.302 16.1363C84.3146 18.5521 86.1395 20.5235 88.8078 21.0135C90.1419 21.2528 91.7529 20.8312 93.0618 19.874C93.4268 19.6233 93.754 19.4409 93.7918 19.4751C93.8295 19.5207 93.8673 19.8398 93.8673 20.2044C93.8673 20.7628 93.905 20.8882 94.1316 20.9907C94.333 21.0933 94.4588 21.0819 94.698 20.9337L95 20.7628V18.2216C95 15.5323 94.8993 14.86 94.3581 13.9028C93.8169 12.9456 92.5584 11.9656 91.3501 11.5554C90.6579 11.3275 88.9965 11.2819 88.2288 11.4756ZM91.2746 12.7063C94.0183 13.8458 94.6728 16.9568 92.5709 18.8712C91.8032 19.5663 90.9725 19.8854 89.8398 19.9423C88.5434 19.9993 87.6247 19.6916 86.7563 18.894C85.8123 18.0279 85.5102 17.3898 85.5102 16.2047C85.5102 14.9284 85.8249 14.2675 86.8444 13.4128C88.1281 12.3303 89.7391 12.0682 91.2746 12.7063Z" fill="#0B2C3D"/>
</svg>
