<svg width="38" height="38" viewBox="0 0 38 38" fill="none" xmlns="http://www.w3.org/2000/svg">
<g id="ic:baseline-apple">
<path id="Vector" d="M27.0009 32.11C25.4492 33.6142 23.7551 33.3767 22.1242 32.6642C20.3984 31.9358 18.8151 31.9042 16.9942 32.6642C14.7142 33.6458 13.5109 33.3608 12.1492 32.11C4.42256 24.1458 5.56256 12.0175 14.3342 11.5742C16.4717 11.685 17.9601 12.7458 19.2109 12.8408C21.0792 12.4608 22.8684 11.3683 24.8634 11.5108C27.2542 11.7008 29.0592 12.6508 30.2467 14.3608C25.3067 17.3217 26.4784 23.8292 31.0067 25.65C30.1042 28.025 28.9326 30.3842 26.9851 32.1258L27.0009 32.11ZM19.0526 11.4792C18.8151 7.94833 21.6809 5.035 24.9742 4.75C25.4334 8.835 21.2692 11.875 19.0526 11.4792Z" fill="black"/>
</g>
</svg>
