<svg width="16" height="16" viewBox="0 0 16 16" fill="none" xmlns="http://www.w3.org/2000/svg">
<g id="uiw:d-arrow-right">
<path id="Vector" fill-rule="evenodd" clip-rule="evenodd" d="M13.9669 1.72317L8.1637 7.53117C8.0549 7.64317 8.0005 7.77277 8.0005 7.91757C8.00177 8.06687 8.06017 8.21 8.1637 8.31757L14.2237 14.236C14.5301 14.4896 14.8029 14.4896 15.0413 14.236C15.2805 13.9824 15.2805 13.7216 15.0413 13.452L9.3773 7.91757L14.7805 2.50717C14.9701 2.23277 14.9525 1.98397 14.7277 1.75917C14.5029 1.53517 14.2493 1.52317 13.9669 1.72317ZM6.7669 1.72317L0.963704 7.53117C0.854904 7.64317 0.800504 7.77277 0.800504 7.91757C0.801774 8.06687 0.860174 8.21 0.963704 8.31757L7.0237 14.236C7.3301 14.4896 7.6029 14.4896 7.8413 14.236C8.0805 13.9824 8.0805 13.7216 7.8413 13.452L2.1773 7.91757L7.5805 2.50717C7.7701 2.23277 7.7525 1.98397 7.5277 1.75917C7.3029 1.53517 7.0493 1.52317 6.7669 1.72317Z" fill="#00C5B4"/>
</g>
</svg>
