<svg width="17" height="16" viewBox="0 0 17 16" fill="none" xmlns="http://www.w3.org/2000/svg">
<g id="uiw:d-arrow-right">
<path id="Vector" fill-rule="evenodd" clip-rule="evenodd" d="M2.5331 1.72317L8.3363 7.53117C8.4451 7.64317 8.4995 7.77277 8.4995 7.91757C8.49823 8.06687 8.43983 8.21 8.3363 8.31757L2.2763 14.236C1.9699 14.4896 1.6971 14.4896 1.4587 14.236C1.2195 13.9824 1.2195 13.7216 1.4587 13.452L7.1227 7.91757L1.7195 2.50717C1.5299 2.23277 1.5475 1.98397 1.7723 1.75917C1.9971 1.53517 2.2507 1.52317 2.5331 1.72317ZM9.7331 1.72317L15.5363 7.53117C15.6451 7.64317 15.6995 7.77277 15.6995 7.91757C15.6982 8.06687 15.6398 8.21 15.5363 8.31757L9.4763 14.236C9.1699 14.4896 8.8971 14.4896 8.6587 14.236C8.4195 13.9824 8.4195 13.7216 8.6587 13.452L14.3227 7.91757L8.9195 2.50717C8.7299 2.23277 8.7475 1.98397 8.9723 1.75917C9.1971 1.53517 9.4507 1.52317 9.7331 1.72317Z" fill="#00C5B4"/>
</g>
</svg>
