<svg width="26" height="25" viewBox="0 0 26 25" fill="none" xmlns="http://www.w3.org/2000/svg">
<g id="fleat-icon">
<rect x="0.5" width="25" height="25" rx="12.5" fill="#EDF1F9"/>
<g id="Group">
<path id="Vector" d="M7.8548 11.1458H9.20896C9.12555 11.1458 9.04699 11.1074 8.99555 11.0418C8.94408 10.9763 8.92621 10.8907 8.94627 10.8095L9.11473 10.1362C9.2052 9.77381 9.52964 9.52084 9.90286 9.52084H11.6465C12.0945 9.52084 12.459 9.88538 12.459 10.3333V10.875C12.459 11.0245 12.3376 11.1458 12.1881 11.1458H13.8131C13.6636 11.1458 13.5423 11.0245 13.5423 10.875V10.3333C13.5423 9.88538 13.9068 9.52084 14.3548 9.52084H16.0984C16.4716 9.52084 16.7961 9.77381 16.8866 10.1362L17.055 10.8095C17.0756 10.8902 17.0572 10.9763 17.0057 11.0418C16.9543 11.1074 16.8757 11.1458 16.7923 11.1458H18.1465C18.296 11.1458 18.4173 11.0245 18.4173 10.875V9.25C18.4173 8.50359 17.8096 7.89584 17.0632 7.89584H8.93814C8.19173 7.89584 7.58398 8.50359 7.58398 9.25V10.875C7.58398 11.0245 7.7053 11.1458 7.8548 11.1458Z" fill="#00C5B4"/>
<path id="Vector_2" d="M18.1458 11.6875H7.85416C7.10775 11.6875 6.5 12.2953 6.5 13.0417V16.8333C6.5 16.9828 6.62134 17.1042 6.77084 17.1042C6.92034 17.1042 7.04168 16.9828 7.04168 16.8333V16.0208H18.9583V16.8333C18.9583 16.9828 19.0797 17.1042 19.2292 17.1042C19.3787 17.1042 19.5 16.9828 19.5 16.8333V13.0417C19.5 12.2953 18.8923 11.6875 18.1458 11.6875ZM18.9583 15.4792H7.04166V14.9375H18.9583V15.4792H18.9583Z" fill="#00C5B4"/>
</g>
</g>
</svg>
