<svg width="26" height="25" viewBox="0 0 26 25" fill="none" xmlns="http://www.w3.org/2000/svg">
<g id="move-icon">
<rect x="0.410156" width="25" height="25" rx="12.5" fill="#EDF1F9"/>
<g id="Group">
<path id="Vector" d="M17.2831 10.373L16.7445 10.9116L17.9479 12.115H14.326C14.1906 11.6121 13.7939 11.2154 13.291 11.08V7.45812L14.4986 8.66563L15.0372 8.12701L12.9102 6L10.7831 8.12701L11.3218 8.66563L12.5293 7.45812V11.08C12.0264 11.2154 11.6297 11.6121 11.4943 12.115H7.87239L9.07579 10.9116L8.53717 10.373L6.41016 12.5L8.53717 14.627L9.07579 14.0884L7.86409 12.8767H11.4943C11.6297 13.3796 12.0264 13.7763 12.5293 13.9117V17.5419L11.3217 16.3343L10.7831 16.873L12.9101 19L15.0371 16.873L14.4985 16.3343L13.291 17.5419V13.9117C13.7939 13.7763 14.1906 13.3796 14.326 12.8767H17.9562L16.7445 14.0884L17.2831 14.627L19.4101 12.5L17.2831 10.373Z" fill="#00C5B4"/>
</g>
</g>
</svg>
