<svg width="60" height="60" viewBox="0 0 60 60" fill="none" xmlns="http://www.w3.org/2000/svg">
<path d="M8.36726 53.9443H51.6326C56.8558 53.9443 59.5183 51.3321 59.5183 46.1593V19.8675C59.5183 14.6946 56.8558 12.1082 51.6326 12.1082H45.7569C43.7983 12.1082 43.1962 11.7064 42.0658 10.4507L40.0312 8.19C38.8012 6.81 37.5208 6.05571 34.9087 6.05571H24.9144C22.328 6.05571 21.0465 6.81 19.7919 8.19L17.7573 10.4507C16.6526 11.6807 16.0248 12.1082 14.0662 12.1082H8.36618C3.14297 12.1082 0.480469 14.6946 0.480469 19.8675V46.1593C0.480469 51.3321 3.14404 53.9443 8.36726 53.9443ZM8.44118 49.9007C5.95547 49.9007 4.52404 48.57 4.52404 45.9579V20.0936C4.52404 17.4814 5.95547 16.1507 8.44118 16.1507H15.0701C17.3308 16.1507 18.5362 15.7243 19.7919 14.3186L21.7751 12.1082C23.2065 10.5011 23.9351 10.0993 26.1701 10.0993H33.653C35.888 10.0993 36.6165 10.5011 38.048 12.1082L40.0312 14.3175C41.2869 15.7243 42.4923 16.1507 44.753 16.1507H51.5576C54.0433 16.1507 55.4758 17.4814 55.4758 20.0936V45.9579C55.4758 48.57 54.0444 49.9007 51.5576 49.9007H8.44118ZM29.9876 45.9086C31.7916 45.9137 33.5788 45.5617 35.2462 44.8729C36.9136 44.1841 38.4281 43.1721 39.7025 41.8953C40.977 40.6185 41.9861 39.102 42.6718 37.4334C43.3575 35.7647 43.7061 33.9769 43.6976 32.1729C43.6976 24.5379 37.6205 18.4371 29.9865 18.4371C22.403 18.4371 16.3012 24.5379 16.3012 32.1729C16.3012 39.8057 22.403 45.9086 29.9865 45.9086M48.0412 26.0443C49.749 26.0443 51.1548 24.6643 51.1548 22.9564C51.1548 22.1307 50.8267 21.3387 50.2428 20.7548C49.6589 20.1709 48.867 19.8429 48.0412 19.8429C47.2154 19.8429 46.4235 20.1709 45.8396 20.7548C45.2556 21.3387 44.9276 22.1307 44.9276 22.9564C44.9276 24.6643 46.3333 26.0443 48.0412 26.0443ZM29.9876 42.0921C24.5383 42.0921 20.094 37.6725 20.094 32.1729C20.094 26.6743 24.5137 22.2546 29.9876 22.2546C31.2906 22.2531 32.5811 22.5086 33.7851 23.0064C34.9892 23.5043 36.0833 24.2348 37.0047 25.1561C37.9261 26.0774 38.6567 27.1714 39.1547 28.3754C39.6527 29.5794 39.9083 30.8699 39.9069 32.1729C39.9084 33.4759 39.6529 34.7665 39.155 35.9706C38.6571 37.1748 37.9265 38.2689 37.0051 39.1903C36.0837 40.1117 34.9896 40.8423 33.7854 41.3402C32.5812 41.8382 31.2907 42.0937 29.9876 42.0921Z" fill="black"/>
</svg>
