<svg width="112" height="112" viewBox="0 0 112 112" fill="none" xmlns="http://www.w3.org/2000/svg">
<circle cx="56" cy="56" r="56" fill="#00C5B4" fill-opacity="0.28"/>
<path d="M56.4069 28.0013C57.3296 28.0013 58.2383 28.0612 59.0835 28.202C59.9159 28.3111 60.7372 28.4926 61.5381 28.7444C62.3411 28.9874 63.1265 29.2902 63.9118 29.6706C64.676 30.0333 65.4614 30.4771 66.2467 30.9596C67.5744 31.8048 68.881 32.488 70.2122 33.0339C72.8329 34.0828 75.6042 34.7069 78.4215 34.8828C79.8513 34.9849 81.3199 35.0448 82.8483 35.0448V49.1318C82.8483 51.8084 82.5067 54.3441 81.8235 56.76C81.1672 59.1414 80.2346 61.438 79.0448 63.6028C77.86 65.7645 76.4582 67.8 74.861 69.6778C73.2393 71.5982 71.4834 73.4012 69.6065 75.0731C67.7048 76.75 65.7018 78.3084 63.6089 79.7395C61.517 81.1904 59.404 82.5393 57.2909 83.7648L56.4457 84.2685L55.6005 83.7648C53.4282 82.5072 51.3065 81.1644 49.2402 79.7395C47.1355 78.3245 45.1315 76.7653 43.2426 75.0731C41.3669 73.4012 39.6121 71.5982 37.9917 69.6778C36.3987 67.7921 34.9906 65.7577 33.7867 63.6028C32.6172 61.4283 31.6856 59.1341 31.008 56.76C30.3205 54.2762 29.9815 51.7089 30.0008 49.1318V35.0448C31.5327 35.0448 33.0013 34.9849 34.4312 34.8828C35.8387 34.785 37.2371 34.5838 38.615 34.2806C39.9638 33.9777 41.3127 33.5762 42.6404 33.0339C44.0181 32.4778 45.339 31.7903 46.5848 30.9807C48.1343 29.9735 49.705 29.2304 51.2546 28.7409C52.9234 28.2293 54.6616 27.9798 56.4069 28.0013ZM79.3054 38.5067C76.6396 38.3773 73.9985 37.9317 71.4378 37.179C68.8907 36.4192 66.4645 35.301 64.2323 33.858C63.0744 33.098 61.817 32.5018 60.4957 32.0865C59.1759 31.6876 57.8033 31.4905 56.4246 31.5019C55.0356 31.4929 53.6529 31.6899 52.3217 32.0865C50.9985 32.4883 49.7426 33.0854 48.5957 33.858C46.3596 35.3089 43.9271 36.432 41.3725 37.1931C38.8756 37.9186 36.2625 38.3623 33.5225 38.5243V49.1495C33.5225 51.4844 33.8254 53.7172 34.4312 55.869C35.0483 58.0021 35.8986 60.0606 36.9668 62.0074C38.0478 63.9744 39.3219 65.829 40.7703 67.5436C42.2389 69.2728 43.8061 70.8822 45.4965 72.4107C47.187 73.9426 48.9584 75.3514 50.8109 76.6579C52.6809 77.968 54.5545 79.1549 56.4246 80.2396C58.3394 79.1248 60.2064 77.9299 62.0206 76.6579C63.8853 75.3555 65.6661 73.9369 67.3526 72.4107C69.043 70.8822 70.6137 69.2728 72.0823 67.5436C73.5308 65.8291 74.805 63.9745 75.8858 62.0074C76.9493 60.0631 77.787 58.0036 78.3827 55.869C79.0069 53.6841 79.3175 51.4217 79.3054 49.1495V38.5067Z" fill="#00C5B4"/>
<path fill-rule="evenodd" clip-rule="evenodd" d="M69.5373 44.5861L67.9877 43.2549L66.5579 43.3781L51.203 61.5082L45.9732 54.042L44.5645 53.8026L42.9339 54.9683L42.6909 56.377L49.414 65.9773L50.1782 66.3999L51.7876 66.4985L52.6117 66.1393L69.6394 46.0124L69.5373 44.5861Z" fill="#00C5B4"/>
</svg>
