<svg width="113" height="112" viewBox="0 0 113 112" fill="none" xmlns="http://www.w3.org/2000/svg">
<circle cx="56.6666" cy="56" r="56" fill="#00C5B4" fill-opacity="0.28"/>
<path d="M56.4705 50.7964C64.1916 43.0335 83.4991 56.6151 56.4705 74.0804C29.4419 56.6151 48.7494 43.0335 56.4705 50.7964Z" fill="#00C5B4"/>
<path d="M59.7493 25.3586C58.8791 24.4887 57.6991 24 56.4687 24C55.2383 24 54.0583 24.4887 53.1882 25.3586L22.3454 56.1967C21.9103 56.6324 21.6662 57.223 21.6666 57.8386C21.6671 58.4543 21.912 59.0446 22.3477 59.4796C22.7833 59.9146 23.374 60.1588 23.9896 60.1583C24.6053 60.1579 25.1955 59.9129 25.6306 59.4773L28.6281 56.4798V81.0398C28.6281 82.8858 29.3614 84.6561 30.6667 85.9614C31.9719 87.2667 33.7423 88 35.5882 88H77.3492C79.1951 88 80.9655 87.2667 82.2708 85.9614C83.5761 84.6561 84.3094 82.8858 84.3094 81.0398V56.4798L87.3069 59.4773C87.7419 59.9129 88.3322 60.1579 88.9478 60.1583C89.5635 60.1588 90.1541 59.9146 90.5897 59.4796C91.0254 59.0446 91.2704 58.4543 91.2708 57.8386C91.2712 57.223 91.0271 56.6324 90.5921 56.1967L79.6692 45.2785V29.9987C79.6692 29.3834 79.4248 28.7932 78.9897 28.3581C78.5546 27.923 77.9645 27.6786 77.3492 27.6786H72.7091C72.0938 27.6786 71.5037 27.923 71.0686 28.3581C70.6335 28.7932 70.389 29.3834 70.389 29.9987V35.9983L59.7493 25.3586ZM79.6692 51.8396V81.0398C79.6692 81.6552 79.4248 82.2453 78.9897 82.6804C78.5546 83.1155 77.9645 83.3599 77.3492 83.3599H35.5882C34.9729 83.3599 34.3828 83.1155 33.9477 82.6804C33.5126 82.2453 33.2682 81.6552 33.2682 81.0398V51.8396L56.4687 28.6391L79.6692 51.8396Z" fill="#00C5B4"/>
</svg>
