<svg width="112" height="112" viewBox="0 0 112 112" fill="none" xmlns="http://www.w3.org/2000/svg">
<circle cx="56" cy="56" r="56" fill="#00C5B4" fill-opacity="0.28"/>
<path d="M90.3643 48.1159H70.0237C69.6741 48.1159 69.3881 48.4019 69.3881 48.7515V52.5654C69.3881 52.915 69.6741 53.201 70.0237 53.201H90.3643C90.7139 53.201 90.9999 52.915 90.9999 52.5654V48.7515C90.9999 48.4019 90.7139 48.1159 90.3643 48.1159ZM79.7173 58.9218H70.0237C69.6741 58.9218 69.3881 59.2078 69.3881 59.5574V63.3712C69.3881 63.7208 69.6741 64.0069 70.0237 64.0069H79.7173C80.0669 64.0069 80.3529 63.7208 80.3529 63.3712V59.5574C80.3529 59.2078 80.0669 58.9218 79.7173 58.9218ZM53.2031 41.0046H49.7627C49.2701 41.0046 48.8728 41.4019 48.8728 41.8945V61.5994C48.8728 61.8854 49.0079 62.1476 49.2383 62.3145L61.0692 70.9433C61.4664 71.2294 62.0226 71.1499 62.3087 70.7526L64.3507 67.9638V67.9558C64.6367 67.5585 64.5493 67.0023 64.152 66.7163L54.0851 59.4382V41.8945C54.093 41.4019 53.6878 41.0046 53.2031 41.0046Z" fill="#00C5B4"/>
<path d="M79.2247 68.9252H74.6322C74.1873 68.9252 73.7662 69.1556 73.5278 69.537C72.5187 71.134 71.3428 72.6119 69.9921 73.9627C67.664 76.2907 64.9546 78.1181 61.9433 79.3894C58.8207 80.7084 55.5074 81.3758 52.0908 81.3758C48.6663 81.3758 45.353 80.7084 42.2384 79.3894C39.2271 78.1181 36.5176 76.2907 34.1896 73.9627C31.8616 71.6346 30.0341 68.9252 28.7628 65.9138C27.4439 62.7992 26.7764 59.4859 26.7764 56.0614C26.7764 52.6369 27.4439 49.3316 28.7628 46.209C30.0341 43.1976 31.8616 40.4882 34.1896 38.1602C36.5176 35.8322 39.2271 34.0047 42.2384 32.7334C45.353 31.4144 48.6743 30.747 52.0908 30.747C55.5153 30.747 58.8286 31.4144 61.9433 32.7334C64.9546 34.0047 67.664 35.8322 69.9921 38.1602C71.3428 39.5109 72.5187 40.9888 73.5278 42.5858C73.7662 42.9672 74.1873 43.1976 74.6322 43.1976H79.2247C79.773 43.1976 80.1226 42.6256 79.8763 42.1409C74.6958 31.8356 64.1918 25.1375 52.4643 25.0024C35.294 24.7879 21.0318 38.8435 21.0001 55.9979C20.9683 73.184 34.8967 87.1284 52.0829 87.1284C63.9614 87.1284 74.6402 80.4065 79.8763 69.9819C80.1226 69.4973 79.765 68.9252 79.2247 68.9252Z" fill="#00C5B4"/>
</svg>
