<svg width="140" height="49" viewBox="0 0 140 49" fill="none" xmlns="http://www.w3.org/2000/svg">
<path d="M8.31454 0.127789C8.11197 0.211151 7.24646 0.944775 6.38095 1.74509C4.742 3.29569 3.01097 5.61327 2.42169 7.06384C2.23754 7.51401 2.03497 7.96419 1.96131 8.06423C1.8324 8.24763 1.40886 9.64818 1.04055 11.1488C0.782741 12.1992 0.874817 16.5509 1.18787 17.9514C1.8324 20.8526 3.41611 23.7204 5.77325 26.2714C6.21521 26.7382 6.5651 27.1717 6.5651 27.2384C6.5651 27.3051 7.1728 27.9387 7.92782 28.6389C9.843 30.4397 11.4635 32.157 12.9736 34.0244C13.7102 34.9247 14.2995 35.675 14.2995 35.7251C14.2995 35.7584 14.7046 36.3253 15.1834 37.0089C16.5093 38.8429 18.2587 41.7441 18.8848 43.178C19.0137 43.4948 19.2347 43.9783 19.3821 44.2784C19.5294 44.5618 19.6399 44.912 19.6399 45.062C19.6399 45.2121 19.7319 45.3288 19.824 45.3288C19.9345 45.3288 20.0082 45.4789 20.0082 45.6623C20.0082 45.8457 20.1187 46.2792 20.266 46.6127C20.3949 46.9628 20.6159 47.563 20.7448 47.9465C21.0578 48.8635 21.3525 48.8635 21.6655 47.9465C22.6784 44.9287 23.3781 43.328 24.925 40.577C27.1532 36.6254 31.1678 31.6068 34.9429 28.0721C36.1951 26.8883 37.4842 25.421 38.3865 24.1205C38.81 23.5036 39.1599 22.9534 39.1599 22.92C39.1599 22.87 39.4546 22.2531 39.8229 21.5528C40.1912 20.8359 40.5227 19.9856 40.5779 19.6521C40.6331 19.3353 40.7436 18.9852 40.8173 18.9018C40.891 18.8018 41.0014 18.4016 41.0751 17.9848C41.1304 17.5679 41.2408 16.851 41.3145 16.4008C41.6091 14.7335 41.3145 10.3818 40.8357 9.39808C40.7621 9.21468 40.5227 8.61444 40.3385 8.06423C40.0254 7.16388 39.2152 5.5299 38.9758 5.31315C38.9205 5.26313 38.6811 4.87965 38.4233 4.44614C37.9261 3.57914 37.3 2.84552 35.9557 1.52834C35.0902 0.678001 35.0165 0.644657 34.1142 0.644657C33.2855 0.644657 33.0461 0.744694 32.0885 1.37828C31.4992 1.7951 30.3759 2.74548 29.6209 3.51244C25.5327 7.54736 23.6175 9.03127 21.7392 9.53147C20.9289 9.74822 20.7264 9.74822 20.0082 9.53147C18.2403 8.98125 16.9697 7.93084 14.5389 4.94634C12.4211 2.34532 12.2922 2.19526 11.353 1.26156C10.2297 0.144459 9.27213 -0.222351 8.31454 0.127789ZM11.6845 2.41201C12.4211 2.81217 13.5444 4.14603 15.0361 6.39691C16.6566 8.81452 18.0746 10.7653 18.6086 11.2988C19.29 11.9824 20.5054 12.6494 21.0947 12.6494C22.6599 12.6494 24.6304 10.8487 27.1901 7.1472C28.5528 5.16309 29.9892 3.46243 30.7258 2.9789C31.0941 2.72881 31.5729 2.57875 31.9964 2.57875C32.5489 2.56207 32.8067 2.71213 33.709 3.56247C34.7587 4.56285 36.4161 6.7137 36.9685 7.81413C37.6683 9.18133 37.8709 9.68153 37.8709 9.9483C37.8709 10.115 37.9445 10.3151 38.0366 10.4151C38.1287 10.4985 38.3128 11.4822 38.4417 12.5993C38.9021 16.7009 38.0919 19.9022 35.7163 23.3202C34.7955 24.6374 31.7386 27.2717 30.2286 28.0721C26.877 29.8394 25.146 30.2396 20.9289 30.2396C17.8904 30.2396 17.6326 30.2062 16.2331 29.7727C12.9552 28.739 10.9847 27.6719 8.95907 25.8212C6.27046 23.3869 4.64992 20.7025 3.93173 17.5346C3.65551 16.2841 3.65551 12.8494 3.93173 11.5989C4.63151 8.46439 6.45461 5.42986 8.92224 3.26235C10.3218 2.06188 10.7822 1.91182 11.6845 2.41201Z" fill="#55843C"/>
<path d="M50.3564 10.1648C50.1722 10.2482 50.0249 10.4983 50.0249 10.715C50.0249 10.9318 51.4797 13.0659 53.4317 15.7003L56.8385 20.3021V25.0373C56.8385 29.4057 56.8569 29.7891 57.17 30.0392C57.6119 30.406 57.8145 30.3894 58.1828 30.0226C58.459 29.7558 58.4959 29.1556 58.4959 25.054V20.4021L61.9763 15.6836C64.3335 12.4657 65.42 10.8484 65.3647 10.6483C65.2358 10.1815 64.8307 9.93137 64.4071 10.0648C64.2046 10.1148 62.7314 11.9655 60.9451 14.3998C59.2509 16.734 57.7777 18.6181 57.6856 18.5848C57.5751 18.5681 56.0835 16.634 54.3709 14.2997C52.6399 11.9655 51.093 10.0481 50.9457 10.0314C50.7983 9.99806 50.5221 10.0648 50.3564 10.1648Z" fill="white"/>
<path d="M84.5902 10.2814C84.3323 10.5482 84.2771 11.0151 84.2771 13.2826V15.9837H83.3932C82.2514 15.9837 81.699 16.4172 82.0304 17.0674C82.233 17.4509 82.5277 17.5676 83.1538 17.4843C83.2827 17.4676 83.5957 17.5009 83.8351 17.551L84.2771 17.651V22.036C84.2771 26.938 84.406 27.7049 85.4188 28.7553C86.137 29.489 87.021 29.9058 88.4758 30.1726C89.4149 30.356 89.6727 30.356 90.0779 30.1559C90.4646 29.9725 90.5383 29.8224 90.5014 29.4223C90.4462 28.8554 90.1884 28.7387 88.6047 28.5553C87.8865 28.4719 87.555 28.3385 87.021 27.8383C86.0081 26.9213 85.916 26.4044 85.9713 21.7026L86.0265 17.5676L87.4813 17.551C89.1939 17.5176 89.6175 17.2842 89.3229 16.5339C89.1571 16.0837 89.1019 16.067 87.5918 15.9837L86.0265 15.9003L85.9713 13.2326C85.9345 11.0651 85.8792 10.5315 85.6214 10.2814C85.2531 9.89796 84.9585 9.89796 84.5902 10.2814Z" fill="white"/>
<path d="M107.775 10.3488C107.517 10.6823 107.48 11.8994 107.48 20.186C107.48 29.4396 107.48 29.6564 107.849 29.9898C108.272 30.3733 108.401 30.39 108.825 30.1065C109.082 29.9398 109.119 29.3562 109.193 25.7382C109.266 20.8696 109.377 20.4194 110.832 19.1022C112.029 18.0185 113.115 17.585 114.754 17.585C116.356 17.5683 117.811 18.1518 118.824 19.2023C120.224 20.6528 120.279 20.8863 120.334 25.7048L120.408 30.0065L120.85 30.1899C121.2 30.34 121.365 30.3233 121.66 30.0732C122.01 29.7897 122.028 29.5563 122.028 25.8382C122.028 21.4365 121.862 20.4861 120.886 19.1189C120.095 17.9851 118.695 16.9014 117.461 16.4512C115.878 15.8843 113.465 15.9176 112.084 16.5345C111.513 16.768 110.721 17.2348 110.298 17.5683C109.874 17.8851 109.451 18.1518 109.34 18.1518C109.193 18.1518 109.138 16.9514 109.138 14.2336C109.138 10.5489 109.119 10.3154 108.788 10.1487C108.272 9.89862 108.088 9.93196 107.775 10.3488Z" fill="white"/>
<path d="M70.7972 16.3005C69.2871 16.7507 68.2375 17.3509 67.2431 18.3513C66.1013 19.5018 65.5489 20.5355 65.2911 21.9694C64.6649 25.6375 67.0773 29.0388 70.9629 30.0059C72.5282 30.406 73.3753 30.406 74.9038 30.0225C76.4875 29.6224 77.5555 29.0555 78.6052 28.0218C80.1705 26.5045 80.8887 24.6704 80.7414 22.5863C80.5756 20.4688 79.4891 18.7181 77.5187 17.3342C75.7877 16.1171 72.8781 15.6669 70.7972 16.3005ZM75.5483 18.0679C76.69 18.5681 78.0896 19.8852 78.6236 20.9523C79.1761 22.0361 79.1577 24.2203 78.6052 25.3707C78.0159 26.5545 76.4875 27.855 75.1616 28.3052C73.6884 28.8054 71.6995 28.7554 70.3736 28.1551C66.9116 26.6212 65.7883 22.603 68.0533 19.8852C68.8268 18.9349 70.1527 18.0845 71.3681 17.7344C72.5466 17.4009 74.3513 17.551 75.5483 18.0679Z" fill="white"/>
<path d="M97.9042 16.101C96.7441 16.3011 94.7921 17.3348 93.9266 18.2018C92.2324 19.8691 91.6063 21.6532 91.8456 24.0708C92.2508 28.0557 96.9466 31.1069 101.127 30.0898C102.508 29.7563 103.631 29.2728 104.313 28.7059C105.012 28.089 105.049 27.7555 104.442 27.3887C104.018 27.1386 103.944 27.1553 102.932 27.7055C101.422 28.5225 100.648 28.7059 99.1196 28.6226C97.5175 28.5225 96.3021 28.039 95.234 27.0386C93.9081 25.8381 93.5767 25.0211 93.5767 23.0704C93.5767 21.6865 93.6503 21.2863 93.9818 20.7361C94.6816 19.5523 95.6576 18.6853 96.9098 18.1351C97.9595 17.6516 98.3094 17.5849 99.5432 17.6016C101.053 17.6016 102.545 18.0517 103.171 18.6687C103.779 19.2689 105.031 18.9354 104.865 18.2018C104.792 17.8017 103.153 16.7179 102.14 16.3844C101.293 16.1177 98.7329 15.9343 97.9042 16.101Z" fill="white"/>
<path d="M129.984 16.234C128.639 16.5841 128.013 16.9009 126.945 17.8013C125.159 19.2852 124.238 21.1026 124.238 23.0533C124.256 26.588 126.927 29.4725 130.831 30.1894C132.783 30.5396 135.14 29.9227 137.055 28.5221C137.589 28.1553 138.068 27.8885 138.123 27.9386C138.178 28.0053 138.234 28.4721 138.234 29.0057C138.234 29.8226 138.289 30.006 138.62 30.1561C138.915 30.3062 139.099 30.2895 139.449 30.0727L139.891 29.8226V26.1045C139.891 22.1696 139.744 21.1859 138.952 19.7854C138.16 18.3848 136.318 16.9509 134.551 16.3507C133.538 16.0172 131.107 15.9505 129.984 16.234ZM134.44 18.0347C138.455 19.702 139.412 24.2538 136.337 27.0549C135.213 28.072 133.998 28.5388 132.341 28.6222C130.444 28.7055 129.1 28.2554 127.829 27.0882C126.448 25.8211 126.006 24.8874 126.006 23.1534C126.006 21.286 126.466 20.3189 127.958 19.0684C129.836 17.4845 132.193 17.101 134.44 18.0347Z" fill="white"/>
</svg>
