<svg width="33" height="32" viewBox="0 0 33 32" fill="none" xmlns="http://www.w3.org/2000/svg">
<g id="logos:facebook" clip-path="url(#clip0_186_2127)">
<path id="Vector" d="M32.6749 16C32.6749 7.1635 25.5114 0 16.6749 0C7.83843 0 0.674927 7.1635 0.674927 16C0.674927 23.986 6.52593 30.6054 14.1749 31.8056V20.625H10.1124V16H14.1749V12.475C14.1749 8.465 16.5637 6.25 20.2184 6.25C21.9689 6.25 23.7999 6.5625 23.7999 6.5625V10.5H21.7824C19.7948 10.5 19.1749 11.7334 19.1749 12.9988V16H23.6124L22.9031 20.625H19.1749V31.8056C26.8239 30.6054 32.6749 23.9861 32.6749 16Z" fill="#1877F2"/>
<path id="Vector_2" d="M22.9031 20.625L23.6124 16H19.1749V12.9987C19.1749 11.7332 19.7948 10.5 21.7824 10.5H23.7999V6.5625C23.7999 6.5625 21.9689 6.25 20.2183 6.25C16.5637 6.25 14.1749 8.465 14.1749 12.475V16H10.1124V20.625H14.1749V31.8056C15.0019 31.9352 15.8378 32.0002 16.6749 32C17.512 32.0002 18.3479 31.9353 19.1749 31.8056V20.625H22.9031Z" fill="white"/>
</g>
<defs>
<clipPath id="clip0_186_2127">
<rect width="32" height="32" fill="white" transform="translate(0.674927)"/>
</clipPath>
</defs>
</svg>
