<svg width="33" height="32" viewBox="0 0 33 32" fill="none" xmlns="http://www.w3.org/2000/svg">
<g id="flat-color-icons:google">
<path id="Vector" d="M29.4089 13.3887H28.3349V13.3334H16.3349V18.6667H23.8703C22.7709 21.7714 19.8169 24.0001 16.3349 24.0001C11.9169 24.0001 8.33492 20.4181 8.33492 16.0001C8.33492 11.5821 11.9169 8.00008 16.3349 8.00008C18.3743 8.00008 20.2296 8.76941 21.6423 10.0261L25.4136 6.25475C23.0323 4.03541 19.8469 2.66675 16.3349 2.66675C8.97159 2.66675 3.00159 8.63675 3.00159 16.0001C3.00159 23.3634 8.97159 29.3334 16.3349 29.3334C23.6983 29.3334 29.6683 23.3634 29.6683 16.0001C29.6683 15.1061 29.5763 14.2334 29.4089 13.3887Z" fill="#FFC107"/>
<path id="Vector_2" d="M4.53894 9.79408L8.91961 13.0067C10.1049 10.0721 12.9756 8.00008 16.3349 8.00008C18.3743 8.00008 20.2296 8.76941 21.6423 10.0261L25.4136 6.25475C23.0323 4.03541 19.8469 2.66675 16.3349 2.66675C11.2136 2.66675 6.77227 5.55808 4.53894 9.79408Z" fill="#FF3D00"/>
<path id="Vector_3" d="M16.335 29.3333C19.779 29.3333 22.9083 28.0153 25.2743 25.872L21.1476 22.38C19.764 23.4322 18.0733 24.0013 16.335 24C12.867 24 9.9223 21.7886 8.81297 18.7026L4.46497 22.0526C6.67163 26.3706 11.153 29.3333 16.335 29.3333Z" fill="#4CAF50"/>
<path id="Vector_4" d="M29.409 13.3886H28.335V13.3333H16.335V18.6666H23.8703C23.3444 20.1442 22.3972 21.4354 21.1456 22.3806L21.1476 22.3793L25.2743 25.8713C24.9823 26.1366 29.6683 22.6666 29.6683 15.9999C29.6683 15.1059 29.5763 14.2333 29.409 13.3886Z" fill="#1976D2"/>
</g>
</svg>
