<svg width="26" height="25" viewBox="0 0 26 25" fill="none" xmlns="http://www.w3.org/2000/svg">
<g id="fleat-icon">
<rect x="0.580078" width="25" height="25" rx="12.5" fill="#EDF1F9"/>
<g id="Group">
<g id="Group_2">
<g id="Group_3">
<path id="Vector" d="M18.8851 17.7129L18.6805 17.2298C18.2433 17.6129 17.7132 17.8924 17.1289 18.0295L17.5044 18.5181C17.6558 18.7152 17.8946 18.8329 18.1432 18.8329C18.4142 18.8329 18.6653 18.698 18.8149 18.4721C18.9645 18.2462 18.9908 17.9624 18.8851 17.7129Z" fill="#00C5B4"/>
</g>
</g>
<g id="Group_4">
<g id="Group_5">
<path id="Vector_2" d="M7.47964 17.2298L7.27499 17.7129C7.16932 17.9624 7.19554 18.2462 7.34517 18.4721C7.4948 18.698 7.74591 18.8328 8.01688 18.8328C8.26546 18.8328 8.50425 18.7152 8.65579 18.5181L9.03121 18.0294C8.44685 17.8924 7.91679 17.6129 7.47964 17.2298Z" fill="#00C5B4"/>
</g>
</g>
<g id="Group_6">
<g id="Group_7">
<path id="Vector_3" d="M11.2299 7.53012H11.1883C11.0855 6.76182 10.4262 6.16718 9.63024 6.16718H9.2795C8.41246 6.16718 7.70703 6.87258 7.70703 7.73964V11.0332H8.4706V7.73962C8.4706 7.2936 8.83349 6.93072 9.2795 6.93072H9.63024C10.0038 6.93072 10.3189 7.18534 10.4115 7.53009H10.3498C9.74239 7.53009 9.24824 8.02425 9.24824 8.63164V9.2757C9.24824 9.47989 9.40869 9.64615 9.61031 9.65648C9.61689 9.65681 9.62336 9.65747 9.63002 9.65747H11.9497C12.1605 9.65747 12.3315 9.48654 12.3315 9.2757V8.63167C12.3315 8.02427 11.8373 7.53012 11.2299 7.53012Z" fill="#00C5B4"/>
</g>
</g>
<g id="Group_8">
<g id="Group_9">
<path id="Vector_4" d="M7.00781 14.0299V14.5144C7.00781 16.0841 8.28481 17.3611 9.85448 17.3611H16.3039C17.8736 17.3611 19.1506 16.0841 19.1506 14.5144V14.0299H7.00781Z" fill="#00C5B4"/>
</g>
</g>
<g id="Group_10">
<g id="Group_11">
<path id="Vector_5" d="M19.0309 12.1622H7.12928C6.82644 12.1623 6.58008 12.4086 6.58008 12.7115C6.58008 13.0143 6.82644 13.2607 7.12928 13.2607H19.0309C19.3337 13.2607 19.5801 13.0143 19.5801 12.7115C19.5801 12.4086 19.3337 12.1622 19.0309 12.1622Z" fill="#00C5B4"/>
</g>
</g>
</g>
</g>
</svg>
