<svg width="26" height="25" viewBox="0 0 26 25" fill="none" xmlns="http://www.w3.org/2000/svg">
<rect x="0.0898438" width="25" height="25" rx="12.5" fill="#EDF1F9"/>
<g clip-path="url(#clip0_532_2665)">
<path d="M17.7362 8.16667H16.5626V8.88889H17.6459V16.8333H7.53482V8.88889H8.61815V8.16667H7.44454C7.36012 8.16808 7.27681 8.18611 7.19937 8.21972C7.12192 8.25333 7.05185 8.30187 6.99317 8.36257C6.93449 8.42326 6.88833 8.49493 6.85735 8.57346C6.82637 8.652 6.81116 8.73587 6.81259 8.82028V16.9019C6.81116 16.9864 6.82637 17.0702 6.85735 17.1488C6.88833 17.2273 6.93449 17.299 6.99317 17.3597C7.05185 17.4204 7.12192 17.4689 7.19937 17.5025C7.27681 17.5361 7.36012 17.5541 7.44454 17.5556H17.7362C17.8206 17.5541 17.9039 17.5361 17.9814 17.5025C18.0588 17.4689 18.1289 17.4204 18.1876 17.3597C18.2463 17.299 18.2924 17.2273 18.3234 17.1488C18.3544 17.0702 18.3696 16.9864 18.3681 16.9019V8.82028C18.3696 8.73587 18.3544 8.652 18.3234 8.57346C18.2924 8.49493 18.2463 8.42326 18.1876 8.36257C18.1289 8.30187 18.0588 8.25333 17.9814 8.21972C17.9039 8.18611 17.8206 8.16808 17.7362 8.16667Z" fill="#00C5B4"/>
<path d="M8.97852 11.0556H9.70074V11.7778H8.97852V11.0556Z" fill="#00C5B4"/>
<path d="M11.1445 11.0556H11.8668V11.7778H11.1445V11.0556Z" fill="#00C5B4"/>
<path d="M13.3125 11.0556H14.0347V11.7778H13.3125V11.0556Z" fill="#00C5B4"/>
<path d="M15.4785 11.0556H16.2007V11.7778H15.4785V11.0556Z" fill="#00C5B4"/>
<path d="M8.97852 12.8611H9.70074V13.5833H8.97852V12.8611Z" fill="#00C5B4"/>
<path d="M11.1445 12.8611H11.8668V13.5833H11.1445V12.8611Z" fill="#00C5B4"/>
<path d="M13.3125 12.8611H14.0347V13.5833H13.3125V12.8611Z" fill="#00C5B4"/>
<path d="M15.4785 12.8611H16.2007V13.5833H15.4785V12.8611Z" fill="#00C5B4"/>
<path d="M8.97852 14.6667H9.70074V15.3889H8.97852V14.6667Z" fill="#00C5B4"/>
<path d="M11.1445 14.6667H11.8668V15.3889H11.1445V14.6667Z" fill="#00C5B4"/>
<path d="M13.3125 14.6667H14.0347V15.3889H13.3125V14.6667Z" fill="#00C5B4"/>
<path d="M15.4785 14.6667H16.2007V15.3889H15.4785V14.6667Z" fill="#00C5B4"/>
<path d="M9.70095 9.61111C9.79673 9.61111 9.88858 9.57306 9.9563 9.50534C10.024 9.43762 10.0621 9.34577 10.0621 9.25V7.08333C10.0621 6.98756 10.024 6.89571 9.9563 6.82799C9.88858 6.76027 9.79673 6.72222 9.70095 6.72222C9.60518 6.72222 9.51333 6.76027 9.44561 6.82799C9.37789 6.89571 9.33984 6.98756 9.33984 7.08333V9.25C9.33984 9.34577 9.37789 9.43762 9.44561 9.50534C9.51333 9.57306 9.60518 9.61111 9.70095 9.61111Z" fill="#00C5B4"/>
<path d="M15.4783 9.61111C15.5741 9.61111 15.6659 9.57306 15.7336 9.50534C15.8014 9.43762 15.8394 9.34577 15.8394 9.25V7.08333C15.8394 6.98756 15.8014 6.89571 15.7336 6.82799C15.6659 6.76027 15.5741 6.72222 15.4783 6.72222C15.3825 6.72222 15.2907 6.76027 15.223 6.82799C15.1552 6.89571 15.1172 6.98756 15.1172 7.08333V9.25C15.1172 9.34577 15.1552 9.43762 15.223 9.50534C15.2907 9.57306 15.3825 9.61111 15.4783 9.61111Z" fill="#00C5B4"/>
<path d="M10.7852 8.16667H14.3963V8.88889H10.7852V8.16667Z" fill="#00C5B4"/>
</g>
<defs>
<clipPath id="clip0_532_2665">
<rect x="6.08984" y="6" width="13" height="13" fill="white"/>
</clipPath>
</defs>
</svg>
