<svg width="113" height="112" viewBox="0 0 113 112" fill="none" xmlns="http://www.w3.org/2000/svg">
<circle cx="56.3333" cy="56" r="56" fill="#00C5B4" fill-opacity="0.28"/>
<path d="M77.1668 33H27.3333V71.3335H77.1668V33ZM73.3335 67.5002H31.1666V36.8334H73.3335V67.5002Z" fill="#00C5B4"/>
<path d="M81.0008 42.5835V75.167H36.9172V79.0003H84.8342V42.5835H81.0008Z" fill="#00C5B4"/>
<path d="M52.2496 61.5656C57.0054 61.5656 60.8746 57.3565 60.8746 52.1828C60.8746 47.0091 57.0054 42.7999 52.2496 42.7999C47.4938 42.7999 43.6246 47.0089 43.6246 52.1828C43.6246 57.3566 47.4938 61.5656 52.2496 61.5656ZM52.2496 46.6333C54.8917 46.6333 57.0413 49.1228 57.0413 52.1828C57.0413 55.2427 54.8917 57.7323 52.2496 57.7323C49.6075 57.7323 47.4579 55.2427 47.4579 52.1828C47.4579 49.1228 49.6075 46.6333 52.2496 46.6333ZM34.9995 41.625H38.8329V62.7084H34.9995V41.625ZM65.6663 41.625H69.4997V62.7084H65.6663V41.625Z" fill="#00C5B4"/>
</svg>
