<svg width="20" height="21" viewBox="0 0 20 21" fill="none" xmlns="http://www.w3.org/2000/svg">
<path d="M18.4563 14.5437C18.544 14.6316 18.5933 14.7508 18.5933 14.875C18.5933 14.9992 18.544 15.1184 18.4563 15.2062L16.5813 17.0812C16.4924 17.164 16.3749 17.2091 16.2534 17.207C16.132 17.2048 16.0161 17.1556 15.9302 17.0698C15.8444 16.9839 15.7952 16.868 15.793 16.7466C15.7909 16.6251 15.8359 16.5076 15.9187 16.4187L16.9938 15.3437H15.6984C14.8277 15.3432 13.9695 15.1353 13.1951 14.7371C12.4207 14.3388 11.7523 13.7619 11.2453 13.0539L7.98672 8.4914C7.56722 7.90526 7.01418 7.42743 6.37336 7.09744C5.73254 6.76745 5.02236 6.59479 4.30156 6.59375H2.5C2.37568 6.59375 2.25645 6.54436 2.16854 6.45645C2.08064 6.36854 2.03125 6.24932 2.03125 6.125C2.03125 6.00068 2.08064 5.88145 2.16854 5.79354C2.25645 5.70563 2.37568 5.65625 2.5 5.65625H4.30156C5.17235 5.65676 6.03048 5.86473 6.80489 6.26294C7.57929 6.66114 8.24768 7.23812 8.75469 7.94609L12.0133 12.5086C12.4328 13.0947 12.9858 13.5726 13.6266 13.9025C14.2675 14.2325 14.9776 14.4052 15.6984 14.4062H16.9938L15.9187 13.3312C15.8359 13.2424 15.7909 13.1249 15.793 13.0034C15.7952 12.882 15.8444 12.7661 15.9302 12.6802C16.0161 12.5943 16.132 12.5452 16.2534 12.543C16.3749 12.5409 16.4924 12.5859 16.5813 12.6687L18.4563 14.5437ZM11.2641 8.73046C11.3432 8.78763 11.4383 8.81826 11.5359 8.81796C11.6106 8.81808 11.6843 8.80035 11.7507 8.76624C11.8172 8.73213 11.8745 8.68263 11.918 8.62187L12.0109 8.4914C12.4307 7.90494 12.9841 7.42691 13.6253 7.09691C14.2666 6.7669 14.9772 6.59442 15.6984 6.59375H16.9938L15.9187 7.66875C15.8727 7.71166 15.8358 7.76341 15.8101 7.82091C15.7845 7.87841 15.7707 7.94048 15.7696 8.00342C15.7685 8.06636 15.7801 8.12888 15.8037 8.18724C15.8272 8.24561 15.8623 8.29863 15.9069 8.34314C15.9514 8.38766 16.0044 8.42275 16.0628 8.44632C16.1211 8.4699 16.1836 8.48148 16.2466 8.48037C16.3095 8.47926 16.3716 8.46548 16.4291 8.43986C16.4866 8.41424 16.5383 8.3773 16.5813 8.33125L18.4563 6.45625C18.544 6.36835 18.5933 6.24921 18.5933 6.125C18.5933 6.00078 18.544 5.88164 18.4563 5.79375L16.5813 3.91875C16.4924 3.83595 16.3749 3.79087 16.2534 3.79301C16.132 3.79515 16.0161 3.84435 15.9302 3.93023C15.8444 4.01612 15.7952 4.13198 15.793 4.25342C15.7909 4.37486 15.8359 4.49239 15.9187 4.58125L16.9938 5.65625H15.6984C14.8277 5.65676 13.9695 5.86473 13.1951 6.26294C12.4207 6.66114 11.7523 7.23812 11.2453 7.94609L11.1547 8.07812C11.083 8.17922 11.0542 8.30462 11.0747 8.42687C11.0952 8.54913 11.1633 8.65829 11.2641 8.73046ZM8.73594 12.2695C8.63482 12.1972 8.50912 12.168 8.3865 12.1884C8.26387 12.2088 8.15435 12.277 8.08203 12.3781L7.98906 12.5086C7.56933 13.0951 7.01592 13.5731 6.37466 13.9031C5.7334 14.2331 5.02275 14.4056 4.30156 14.4062H2.5C2.37568 14.4062 2.25645 14.4556 2.16854 14.5435C2.08064 14.6314 2.03125 14.7507 2.03125 14.875C2.03125 14.9993 2.08064 15.1185 2.16854 15.2065C2.25645 15.2944 2.37568 15.3437 2.5 15.3437H4.30156C5.17235 15.3432 6.03048 15.1353 6.80489 14.7371C7.57929 14.3388 8.24768 13.7619 8.75469 13.0539L8.84766 12.9234C8.8833 12.8732 8.90869 12.8164 8.92236 12.7563C8.93604 12.6962 8.93774 12.6341 8.92736 12.5733C8.91698 12.5126 8.89474 12.4545 8.86189 12.4024C8.82904 12.3502 8.78624 12.3051 8.73594 12.2695Z" fill="#00C5B4"/>
</svg>
