<svg width="13" height="12" viewBox="0 0 13 12" fill="none" xmlns="http://www.w3.org/2000/svg">
<path d="M11.6414 4.20864C12.2152 4.29692 12.4359 5.00317 12.0166 5.42251L9.69922 7.69575L10.251 10.8959C10.3393 11.4698 9.72129 11.9112 9.21367 11.6463L6.34453 10.1235L3.45332 11.6463C2.9457 11.9112 2.32773 11.4698 2.41602 10.8959L2.96777 7.69575L0.650391 5.42251C0.231055 5.00317 0.451758 4.29692 1.02559 4.20864L4.26992 3.74517L5.70449 0.809814C5.96934 0.280127 6.71973 0.302197 6.9625 0.809814L8.41914 3.74517L11.6414 4.20864ZM8.55156 7.32056L10.7807 5.15767L7.71289 4.71626L6.34453 1.9354L4.9541 4.71626L1.88633 5.15767L4.11543 7.32056L3.58574 10.3663L6.34453 8.93169L9.08125 10.3663L8.55156 7.32056Z" fill="#FFC107"/>
</svg>
