<svg width="16" height="17" viewBox="0 0 16 17" fill="none" xmlns="http://www.w3.org/2000/svg">
<g clip-path="url(#clip0_104_3203)">
<path d="M8 8.80005C9.21242 8.80005 10.3752 8.37862 11.2325 7.62848C12.0898 6.87833 12.5714 5.86091 12.5714 4.80005C12.5714 3.73918 12.0898 2.72177 11.2325 1.97162C10.3752 1.22148 9.21242 0.800049 8 0.800049C6.78758 0.800049 5.62482 1.22148 4.76751 1.97162C3.9102 2.72177 3.42857 3.73918 3.42857 4.80005C3.42857 5.86091 3.9102 6.87833 4.76751 7.62848C5.62482 8.37862 6.78758 8.80005 8 8.80005ZM4.57143 10.525C1.92857 11.2032 0 13.3407 0 15.8719C0 16.3844 0.475 16.8 1.06071 16.8H14.9393C15.525 16.8 16 16.3844 16 15.8719C16 13.3407 14.0714 11.2032 11.4286 10.525V12.1125C12.4143 12.3344 13.1429 13.1188 13.1429 14.05V15.3C13.1429 15.575 12.8857 15.8 12.5714 15.8H12C11.6857 15.8 11.4286 15.575 11.4286 15.3C11.4286 15.025 11.6857 14.8 12 14.8V14.05C12 13.4969 11.4893 13.05 10.8571 13.05C10.225 13.05 9.71429 13.4969 9.71429 14.05V14.8C10.0286 14.8 10.2857 15.025 10.2857 15.3C10.2857 15.575 10.0286 15.8 9.71429 15.8H9.14286C8.82857 15.8 8.57143 15.575 8.57143 15.3V14.05C8.57143 13.1188 9.3 12.3344 10.2857 12.1125V10.3282C10.0714 10.3094 9.85357 10.3 9.63214 10.3H6.36786C6.14643 10.3 5.92857 10.3094 5.71429 10.3282V12.3719C6.53929 12.5875 7.14286 13.2563 7.14286 14.05C7.14286 15.0157 6.24643 15.8 5.14286 15.8C4.03929 15.8 3.14286 15.0157 3.14286 14.05C3.14286 13.2563 3.74643 12.5875 4.57143 12.3719V10.525ZM5.14286 14.8C5.37019 14.8 5.5882 14.721 5.74895 14.5804C5.90969 14.4397 6 14.249 6 14.05C6 13.8511 5.90969 13.6604 5.74895 13.5197C5.5882 13.3791 5.37019 13.3 5.14286 13.3C4.91553 13.3 4.69751 13.3791 4.53677 13.5197C4.37602 13.6604 4.28571 13.8511 4.28571 14.05C4.28571 14.249 4.37602 14.4397 4.53677 14.5804C4.69751 14.721 4.91553 14.8 5.14286 14.8Z" fill="#00C5B4"/>
</g>
<defs>
<clipPath id="clip0_104_3203">
<rect width="16" height="16" fill="white" transform="translate(0 0.800049)"/>
</clipPath>
</defs>
</svg>
