<svg width="16" height="17" viewBox="0 0 16 17" fill="none" xmlns="http://www.w3.org/2000/svg">
<g id="mdi:taxi">
<path id="Vector" d="M3.33333 8.13338L4.33333 5.13338H11.6667L12.6667 8.13338M11.6667 11.4667C11.4015 11.4667 11.1471 11.3614 10.9596 11.1738C10.772 10.9863 10.6667 10.7319 10.6667 10.4667C10.6667 10.2015 10.772 9.94714 10.9596 9.75961C11.1471 9.57207 11.4015 9.46672 11.6667 9.46672C11.9319 9.46672 12.1862 9.57207 12.3738 9.75961C12.5613 9.94714 12.6667 10.2015 12.6667 10.4667C12.6667 10.7319 12.5613 10.9863 12.3738 11.1738C12.1862 11.3614 11.9319 11.4667 11.6667 11.4667ZM4.33333 11.4667C4.06812 11.4667 3.81376 11.3614 3.62623 11.1738C3.43869 10.9863 3.33333 10.7319 3.33333 10.4667C3.33333 10.2015 3.43869 9.94714 3.62623 9.75961C3.81376 9.57207 4.06812 9.46672 4.33333 9.46672C4.59855 9.46672 4.8529 9.57207 5.04044 9.75961C5.22798 9.94714 5.33333 10.2015 5.33333 10.4667C5.33333 10.7319 5.22798 10.9863 5.04044 11.1738C4.8529 11.3614 4.59855 11.4667 4.33333 11.4667ZM12.6133 4.80005C12.48 4.41338 12.1067 4.13338 11.6667 4.13338H10V2.80005H6V4.13338H4.33333C3.89333 4.13338 3.52 4.41338 3.38667 4.80005L2 8.80005V14.1334C2 14.3102 2.07024 14.4798 2.19526 14.6048C2.32029 14.7298 2.48986 14.8 2.66667 14.8H3.33333C3.51014 14.8 3.67971 14.7298 3.80474 14.6048C3.92976 14.4798 4 14.3102 4 14.1334V13.4667H12V14.1334C12 14.3102 12.0702 14.4798 12.1953 14.6048C12.3203 14.7298 12.4899 14.8 12.6667 14.8H13.3333C13.5101 14.8 13.6797 14.7298 13.8047 14.6048C13.9298 14.4798 14 14.3102 14 14.1334V8.80005L12.6133 4.80005Z" fill="#FF385C"/>
</g>
</svg>
