<svg width="20" height="20" viewBox="0 0 20 20" fill="none" xmlns="http://www.w3.org/2000/svg">
<g id="mdi:address">
<path id="Vector" d="M9.99984 9.58335C9.4473 9.58335 8.9174 9.36386 8.5267 8.97316C8.136 8.58246 7.9165 8.05255 7.9165 7.50002C7.9165 6.94749 8.136 6.41758 8.5267 6.02688C8.9174 5.63618 9.4473 5.41669 9.99984 5.41669C10.5524 5.41669 11.0823 5.63618 11.473 6.02688C11.8637 6.41758 12.0832 6.94749 12.0832 7.50002C12.0832 7.77361 12.0293 8.04452 11.9246 8.29728C11.8199 8.55004 11.6664 8.7797 11.473 8.97316C11.2795 9.16661 11.0499 9.32007 10.7971 9.42477C10.5443 9.52947 10.2734 9.58335 9.99984 9.58335ZM9.99984 1.66669C8.45274 1.66669 6.96901 2.28127 5.87505 3.37523C4.78109 4.46919 4.1665 5.95292 4.1665 7.50002C4.1665 11.875 9.99984 18.3334 9.99984 18.3334C9.99984 18.3334 15.8332 11.875 15.8332 7.50002C15.8332 5.95292 15.2186 4.46919 14.1246 3.37523C13.0307 2.28127 11.5469 1.66669 9.99984 1.66669Z" fill="#00C5B4"/>
</g>
</svg>
