<svg width="20" height="20" viewBox="0 0 20 20" fill="none" xmlns="http://www.w3.org/2000/svg">
<g id="simple-line-icons:envolope" clip-path="url(#clip0_108_5011)">
<path id="Vector" d="M19.9894 4.53125C20.009 4.41013 19.9921 4.2859 19.9409 4.17439C19.7834 3.48219 19.2831 3.125 18.4375 3.125H2.1875C1.44375 3.125 0.64248 3.39844 0.248438 3.935C0.214355 3.96094 0.181855 3.99031 0.1525 4.02438C0.026543 4.16969 -0.0175195 4.35658 0.010625 4.53283C0.005 4.58346 0 4.63439 0 4.68752V14.6875C0 15.7231 1.15219 16.875 2.1875 16.875H18.4375C19.4731 16.875 20 15.7231 20 14.6875V4.68752C20 4.63221 19.9928 4.58375 19.9894 4.53125ZM2.18742 4.375L18.4374 4.37498H18.4459L9.99994 11.1065L1.58807 4.40248C1.77932 4.36717 2.01465 4.375 2.18742 4.375ZM18.4374 15.625H2.18746C1.84277 15.625 1.24996 15.0325 1.24996 14.6875V5.73342L9.59059 12.4062C9.70809 12.5078 9.854 12.5584 9.99994 12.5584C10.1504 12.5586 10.2958 12.5045 10.4096 12.4062L18.7499 5.73373V14.6875C18.7499 15.0325 18.7824 15.625 18.4374 15.625Z" fill="#00C5B4"/>
</g>
<defs>
<clipPath id="clip0_108_5011">
<rect width="20" height="20" fill="white"/>
</clipPath>
</defs>
</svg>
