<svg width="26" height="26" viewBox="0 0 26 26" fill="none" xmlns="http://www.w3.org/2000/svg">
<g id="fleat-icon">
<rect x="0.0800781" y="0.799988" width="25" height="25" rx="12.5" fill="#EDF1F9"/>
<g id="Group">
<g id="Group_2">
<g id="Group_3">
<path id="Vector" d="M18.3861 18.5129L18.1814 18.0298C17.7443 18.4129 17.2142 18.6924 16.6299 18.8295L17.0053 19.3181C17.1568 19.5152 17.3956 19.6328 17.6442 19.6328C17.9152 19.6328 18.1663 19.498 18.3159 19.2721C18.4655 19.0462 18.4918 18.7624 18.3861 18.5129Z" fill="#A1ABC9"/>
</g>
</g>
<g id="Group_4">
<g id="Group_5">
<path id="Vector_2" d="M6.97915 18.0298L6.7745 18.5129C6.66883 18.7624 6.69506 19.0462 6.84468 19.2721C6.99431 19.4979 7.24542 19.6328 7.51639 19.6328C7.76497 19.6328 8.00377 19.5152 8.1553 19.3181L8.53072 18.8294C7.94636 18.6924 7.4163 18.4129 6.97915 18.0298Z" fill="#A1ABC9"/>
</g>
</g>
<g id="Group_6">
<g id="Group_7">
<path id="Vector_3" d="M10.7294 8.33011H10.6878C10.585 7.56181 9.92573 6.96716 9.12976 6.96716H8.77901C7.91197 6.96716 7.20654 7.67257 7.20654 8.53963V11.8332H7.97012V8.5396C7.97012 8.09359 8.333 7.73071 8.77901 7.73071H9.12976C9.50333 7.73071 9.8184 7.98533 9.91097 8.33008H9.8493C9.24191 8.33008 8.74775 8.82423 8.74775 9.43163V10.0757C8.74775 10.2799 8.9082 10.4461 9.10982 10.4565C9.1164 10.4568 9.12287 10.4575 9.12953 10.4575H11.4492C11.66 10.4575 11.831 10.2865 11.831 10.0757V9.43165C11.831 8.82426 11.3368 8.33011 10.7294 8.33011Z" fill="#A1ABC9"/>
</g>
</g>
<g id="Group_8">
<g id="Group_9">
<path id="Vector_4" d="M6.50879 14.8299V15.3144C6.50879 16.884 7.78579 18.1611 9.35546 18.1611H15.8049C17.3746 18.1611 18.6516 16.8841 18.6516 15.3144V14.8299H6.50879Z" fill="#A1ABC9"/>
</g>
</g>
<g id="Group_10">
<g id="Group_11">
<path id="Vector_5" d="M18.5309 12.9622H6.62928C6.32644 12.9622 6.08008 13.2086 6.08008 13.5115C6.08008 13.8143 6.32644 14.0607 6.62928 14.0607H18.5309C18.8337 14.0607 19.0801 13.8143 19.0801 13.5115C19.0801 13.2086 18.8337 12.9622 18.5309 12.9622Z" fill="#A1ABC9"/>
</g>
</g>
</g>
</g>
</svg>
