<svg width="26" height="26" viewBox="0 0 26 26" fill="none" xmlns="http://www.w3.org/2000/svg">
<g id="move-icon">
<rect x="0.910156" y="0.799988" width="25" height="25" rx="12.5" fill="#EDF1F9"/>
<g id="Group">
<path id="Vector" d="M17.7831 11.173L17.2445 11.7116L18.4479 12.915H14.826C14.6906 12.4121 14.2939 12.0154 13.791 11.88V8.25811L14.9986 9.46562L15.5372 8.927L13.4102 6.79999L11.2831 8.927L11.8218 9.46562L13.0293 8.25811V11.88C12.5264 12.0154 12.1297 12.4121 11.9943 12.915H8.37239L9.57579 11.7116L9.03717 11.1729L6.91016 13.3L9.03717 15.427L9.57579 14.8884L8.36409 13.6767H11.9943C12.1297 14.1796 12.5264 14.5763 13.0293 14.7117V18.3419L11.8217 17.1343L11.2831 17.6729L13.4101 19.8L15.5371 17.6729L14.9985 17.1343L13.791 18.3419V14.7117C14.2939 14.5763 14.6906 14.1796 14.826 13.6767H18.4562L17.2445 14.8884L17.7831 15.427L19.9101 13.3L17.7831 11.173Z" fill="#A1ABC9"/>
</g>
</g>
</svg>
