<svg width="18" height="18" viewBox="0 0 18 18" fill="none" xmlns="http://www.w3.org/2000/svg">
<g id="pin.svg" clip-path="url(#clip0_81_4426)">
<g id="Group">
<g id="Group_2">
<g id="Group_3">
<path id="Vector" d="M15.5232 4.71672C14.8815 2.64348 13.2145 0.962838 11.1729 0.330553C8.99881 -0.342725 6.73225 0.0227596 4.95447 1.33328C4.10264 1.96121 3.39579 2.78945 2.91038 3.72837C2.4087 4.69879 2.14355 5.7913 2.14355 6.88786C2.14355 8.38369 2.61672 9.8052 3.51194 10.9987L9.00075 18L14.4827 11.0076L14.4896 10.9987C15.8292 9.21246 16.206 6.92274 15.5232 4.71672ZM13.6489 10.3614L9.00075 16.2908L4.3526 10.3614C3.59762 9.35281 3.19852 8.15176 3.19852 6.88786C3.19852 5.041 4.08896 3.28196 5.58046 2.18248C7.08564 1.07291 9.01027 0.76526 10.8609 1.33831C12.5748 1.8691 13.9751 3.28315 14.5155 5.02862C15.0965 6.90604 14.7806 8.84947 13.6489 10.3614Z" fill="#A1ABC9"/>
</g>
</g>
<g id="Group_4">
<g id="Group_5">
<path id="Vector_2" d="M9.00091 3.19554C6.96498 3.19554 5.30859 4.85193 5.30859 6.88786C5.30859 8.9238 6.96498 10.5802 9.00091 10.5802C11.0368 10.5802 12.6932 8.9238 12.6932 6.88786C12.6932 4.85193 11.0368 3.19554 9.00091 3.19554ZM9.00091 9.52525C7.54668 9.52525 6.36353 8.34214 6.36353 6.88786C6.36353 5.43362 7.54664 4.25048 9.00091 4.25048C10.4552 4.25048 11.6383 5.43359 11.6383 6.88786C11.6383 8.3421 10.4552 9.52525 9.00091 9.52525Z" fill="#A1ABC9"/>
</g>
</g>
</g>
</g>
<defs>
<clipPath id="clip0_81_4426">
<rect width="18" height="18" fill="white"/>
</clipPath>
</defs>
</svg>
